<?xml version="1.0" standalone="no"?>
<!DOCTYPE svg PUBLIC "-//W3C//DTD SVG 20010904//EN"
 "http://www.w3.org/TR/2001/REC-SVG-20010904/DTD/svg10.dtd">
<svg version="1.0" xmlns="http://www.w3.org/2000/svg"
 width="300.000000pt" height="104.000000pt" viewBox="0 0 300.000000 104.000000"
 preserveAspectRatio="xMidYMid meet">
<metadata>
Created by potrace 1.10, written by Peter Selinger 2001-2011
</metadata>
<g transform="translate(0.000000,104.000000) scale(0.100000,-0.100000)"
fill="#000000" stroke="none">
<path d="M766 934 c-3 -8 -6 -27 -6 -40 0 -19 -8 -28 -30 -35 -38 -14 -39 -29
-1 -29 39 0 43 -9 29 -69 -13 -57 -35 -67 -72 -32 -37 34 -258 171 -267 165
-16 -9 -10 -30 17 -59 36 -39 44 -73 44 -194 0 -87 -3 -106 -17 -117 -17 -12
-17 -14 5 -36 21 -23 22 -32 22 -188 0 -132 -3 -167 -15 -180 -14 -15 -12 -20
12 -47 16 -16 33 -38 40 -49 11 -19 11 -19 18 1 4 11 14 34 23 52 9 18 13 35
10 39 -6 6 109 182 156 239 l25 30 2 -107 c2 -60 3 -118 3 -130 1 -17 -7 -25
-31 -32 -38 -10 -43 -23 -11 -28 15 -2 29 -16 41 -41 17 -38 37 -49 37 -22 0
8 5 15 10 15 6 0 10 8 10 19 0 10 7 24 15 31 14 12 13 15 -5 35 -18 19 -20 34
-20 164 l0 142 53 -3 52 -3 3 -157 c2 -153 2 -158 -18 -158 -11 0 -20 -4 -20
-10 0 -5 9 -10 20 -10 13 0 18 -5 14 -15 -4 -8 -2 -15 4 -15 5 0 12 -13 16
-30 5 -30 26 -42 26 -16 0 7 7 19 15 26 8 7 15 21 15 32 0 12 9 22 20 25 15 4
18 9 10 18 -6 7 -20 11 -30 8 -19 -5 -20 0 -20 128 0 74 -3 144 -6 157 -10 36
20 27 60 -20 20 -23 39 -57 42 -77 4 -20 22 -64 41 -98 19 -35 32 -67 28 -73
-3 -5 0 -10 8 -10 9 0 17 -14 21 -35 4 -19 11 -35 15 -35 5 0 11 -10 14 -22 9
-35 22 -11 22 40 0 41 3 47 23 50 30 4 28 20 -3 28 -33 8 -31 25 15 114 21 41
49 96 62 122 12 26 29 48 36 48 7 0 18 12 24 28 l11 27 8 -40 c4 -22 5 -106 2
-187 -5 -115 -9 -148 -20 -148 -20 0 -16 -13 17 -58 35 -48 45 -52 54 -17 3
13 16 33 28 45 l21 20 -23 20 c-13 11 -27 20 -32 20 -9 0 -11 172 -2 219 l6
31 19 -24 c10 -13 34 -58 53 -100 19 -42 45 -90 57 -107 16 -23 20 -38 15 -62
-7 -36 19 -97 42 -97 8 0 12 6 8 15 -3 8 -1 15 3 15 15 0 25 81 11 90 -6 4
-10 13 -9 21 5 25 -13 63 -94 193 l-80 129 54 49 c30 27 71 57 92 68 39 22 48
48 22 70 -8 7 -15 18 -15 24 -1 6 -49 43 -107 81 -59 39 -124 85 -146 103 -21
17 -43 32 -48 32 -19 0 -8 -40 18 -60 25 -19 27 -27 36 -142 10 -133 4 -188
-19 -188 -8 0 -22 17 -30 38 -27 62 -46 95 -81 142 -31 40 -32 46 -18 56 14
11 12 14 -16 28 -17 9 -35 13 -40 10 -5 -3 -9 15 -9 40 0 25 -4 46 -8 46 -11
0 -36 -61 -34 -82 1 -12 -5 -18 -18 -18 -26 0 -34 -17 -13 -28 15 -9 12 -21
-32 -121 -26 -61 -51 -111 -55 -111 -5 0 -15 -3 -24 -6 -14 -5 -16 13 -16 161
0 158 1 167 20 172 25 7 26 23 1 30 -10 3 -27 22 -36 44 -23 50 -35 50 -28 -1
5 -35 3 -41 -17 -48 -23 -9 -23 -9 -4 -28 17 -17 19 -31 14 -164 l-5 -144 -43
-9 c-24 -5 -46 -6 -49 -4 -3 3 -7 70 -10 148 l-6 143 33 28 34 28 -32 6 c-27
5 -32 11 -32 34 0 34 -24 59 -34 34z m724 -213 c89 -67 89 -65 4 -143 l-50
-47 -11 32 c-7 18 -14 64 -18 102 -3 39 -8 80 -11 93 -2 12 -2 22 2 22 3 0 41
-26 84 -59z m-890 0 l62 -38 -44 -51 c-45 -53 -57 -59 -76 -40 -11 11 -18 168
-7 168 2 0 32 -17 65 -39z m159 -169 c0 -75 -3 -132 -5 -125 -3 7 -12 9 -20 6
-9 -3 -27 3 -42 14 -15 11 -42 27 -59 37 -18 9 -33 22 -33 29 0 17 87 135 120
163 14 12 28 20 32 17 5 -2 8 -66 7 -141z m391 67 c0 -40 28 -39 32 1 3 30 4
29 55 -42 49 -67 51 -73 33 -80 -25 -9 -25 -19 0 -50 l19 -25 -34 -58 c-19
-32 -35 -61 -35 -66 0 -20 -20 -7 -35 21 -22 42 -35 37 -35 -12 l0 -43 -53
100 c-48 90 -51 101 -35 107 16 6 17 10 6 28 -9 15 -10 23 -2 28 6 4 23 35 39
69 29 65 45 73 45 22z m-526 -175 l64 -46 -35 -63 c-20 -34 -53 -82 -74 -106
l-39 -44 0 153 c0 94 4 152 10 152 5 0 39 -21 74 -46z m276 20 c-38 -8 -90 -9
-90 -2 0 4 24 7 53 7 28 -1 45 -3 37 -5z"/>
<path d="M247 933 c-4 -3 -7 -19 -7 -34 0 -17 -9 -34 -22 -44 -16 -12 -19 -19
-10 -22 15 -6 15 -31 0 -160 l-11 -101 -39 -15 c-40 -16 -50 -42 -19 -52 46
-14 50 -30 40 -185 -5 -80 -14 -155 -20 -167 -10 -19 -7 -28 21 -62 17 -23 36
-39 40 -36 5 3 14 22 20 41 10 30 10 38 -1 45 -11 6 -14 44 -14 168 0 88 2
161 5 164 3 2 26 7 52 10 l46 6 7 -72 c4 -40 13 -110 21 -157 11 -70 11 -87 0
-100 -16 -18 -11 -37 17 -68 28 -30 41 -28 55 11 14 40 15 71 3 95 -5 9 -14
60 -20 112 -6 52 -14 111 -17 130 -4 27 -1 40 14 56 21 22 13 44 -15 44 -14 0
-19 17 -28 98 -3 29 -15 82 -26 118 -14 45 -17 69 -10 78 7 8 2 15 -19 25 -22
9 -31 22 -36 47 -6 33 -14 41 -27 27z m41 -190 c6 -38 14 -98 18 -135 l6 -68
-37 0 -38 0 7 53 c3 28 6 89 6 135 0 62 3 82 13 82 9 0 18 -23 25 -67z"/>
<path d="M2230 937 c0 -2 8 -21 19 -43 17 -35 19 -74 23 -401 4 -298 3 -363
-8 -367 -21 -8 -17 -22 13 -51 48 -44 73 -28 48 31 -11 27 -15 73 -15 178 l1
141 92 -97 c51 -53 103 -118 116 -143 22 -42 23 -48 9 -56 -15 -8 -15 -13 5
-44 12 -19 26 -33 31 -31 16 4 31 59 18 64 -7 2 -12 26 -12 58 0 52 -3 59 -55
124 -30 38 -59 72 -65 75 -14 9 -90 112 -90 123 0 11 109 122 144 146 20 13
26 24 22 40 -8 33 -144 172 -211 216 -51 34 -85 49 -85 37z m203 -204 c27 -20
45 -39 40 -43 -47 -40 -163 -130 -167 -130 -3 0 -6 61 -6 136 l0 136 43 -32
c23 -18 64 -48 90 -67z"/>
<path d="M2678 777 c-71 -73 -130 -140 -133 -149 -3 -9 0 -20 7 -25 8 -4 21
-19 29 -33 9 -14 66 -81 128 -150 l111 -125 -6 -45 c-4 -36 -13 -52 -46 -82
-37 -32 -44 -35 -67 -25 -14 6 -31 17 -38 25 -10 12 -15 13 -28 2 -18 -15 -12
-44 16 -74 11 -11 19 -26 19 -33 0 -21 45 -15 66 8 10 12 35 29 54 39 19 10
53 37 75 59 21 23 49 41 60 41 12 0 24 3 27 6 14 14 -30 85 -101 164 -42 47
-89 102 -104 122 -15 20 -45 49 -67 65 -24 17 -40 36 -40 49 0 24 102 149 142
172 26 15 28 15 53 -8 23 -22 27 -22 41 -8 15 14 14 18 -2 44 -40 66 -59 94
-64 93 -3 0 -62 -60 -132 -132z"/>
<path d="M1635 890 c-3 -6 7 -23 23 -38 l29 -27 6 -345 c4 -216 3 -348 -3
-354 -17 -17 -10 -40 20 -76 19 -22 30 -29 30 -18 0 8 9 27 20 41 23 29 26 41
6 34 -17 -7 -23 36 -32 211 -4 84 -3 122 4 122 6 0 28 -30 48 -67 21 -38 55
-94 76 -125 21 -31 38 -67 38 -80 0 -13 5 -29 12 -36 8 -8 9 -12 1 -12 -18 0
-3 -38 28 -71 l29 -31 0 71 c0 64 -4 80 -41 154 -23 45 -60 109 -82 142 -23
33 -39 60 -37 60 3 0 -6 17 -18 37 l-23 37 23 12 c26 13 121 90 158 128 16 16
20 26 12 29 -7 2 -25 14 -40 26 -38 31 -249 176 -266 182 -8 3 -17 0 -21 -6z
m134 -148 c20 -16 55 -40 78 -54 l43 -25 -23 -20 c-33 -30 -71 -53 -105 -62
-28 -8 -30 -7 -36 21 -8 40 -8 168 0 168 3 0 23 -13 43 -28z"/>
<path d="M2131 843 c-12 -16 -25 -33 -31 -40 -5 -7 -10 -16 -10 -21 0 -5 -22
-43 -48 -83 -83 -128 -118 -193 -118 -220 1 -17 17 -44 46 -75 25 -27 83 -95
129 -152 46 -57 86 -101 89 -98 3 3 11 1 19 -5 11 -9 13 2 13 62 -1 67 -2 72
-15 55 -8 -11 -15 -24 -15 -30 0 -16 -70 57 -86 89 -8 17 -34 53 -59 81 l-44
51 72 7 c69 7 73 6 95 -19 12 -14 22 -33 22 -41 0 -8 5 -14 10 -14 11 0 14
120 4 158 -9 30 -20 28 -27 -7 l-6 -29 -93 -4 c-51 -2 -97 -1 -101 3 -5 3 9
27 31 51 21 25 58 85 82 134 24 49 45 91 47 93 1 2 11 -3 21 -12 26 -24 29
-22 35 25 9 68 -25 90 -62 41z"/>
</g>
</svg>
