<?xml version="1.0" standalone="no"?>
<!DOCTYPE svg PUBLIC "-//W3C//DTD SVG 20010904//EN"
 "http://www.w3.org/TR/2001/REC-SVG-20010904/DTD/svg10.dtd">
<svg version="1.0" xmlns="http://www.w3.org/2000/svg"
 width="300.000000pt" height="134.000000pt" viewBox="0 0 300.000000 134.000000"
 preserveAspectRatio="xMidYMid meet">
<metadata>
Created by potrace 1.10, written by Peter Selinger 2001-2011
</metadata>
<g transform="translate(0.000000,134.000000) scale(0.100000,-0.100000)"
fill="#000000" stroke="none">
<path d="M393 1280 c-8 -45 -21 -72 -50 -108 -22 -26 -68 -87 -103 -137 -124
-175 -171 -232 -205 -251 -19 -10 -35 -22 -35 -26 0 -3 19 -17 43 -30 27 -15
79 -68 150 -153 59 -72 131 -157 160 -189 29 -32 54 -68 57 -80 15 -63 50 -71
50 -11 0 19 5 46 10 60 14 36 90 125 107 125 7 0 17 8 20 17 4 10 11 21 16 24
6 4 0 17 -13 30 -32 34 -50 82 -50 134 0 25 -4 45 -9 45 -7 0 -14 -19 -37
-111 -2 -8 -20 -30 -39 -49 -41 -40 -29 -47 -167 103 -103 111 -102 94 -13
197 25 30 55 71 66 90 10 19 27 45 38 58 19 22 21 22 38 5 10 -10 35 -31 55
-46 29 -23 38 -38 48 -87 7 -33 16 -60 20 -60 10 0 20 38 20 80 0 43 22 77 59
92 25 10 25 10 6 22 -57 33 -180 184 -200 247 -10 30 -20 57 -24 61 -4 4 -12
-19 -18 -52z"/>
<path d="M2707 1274 c-4 -4 -7 -19 -7 -32 0 -26 -84 -206 -107 -230 -7 -7 -13
-20 -13 -27 0 -8 -16 -29 -35 -48 -19 -19 -35 -37 -35 -41 0 -19 57 -76 76
-76 19 0 95 -46 158 -95 30 -23 18 -121 -28 -217 -30 -64 -41 -77 -59 -76 -12
1 -35 -7 -52 -18 l-29 -19 34 -5 c28 -4 39 -12 52 -40 20 -39 51 -47 56 -15 6
28 21 45 43 45 23 0 35 20 19 30 -24 15 22 200 64 263 12 18 29 46 37 62 l15
30 -46 1 c-53 0 -157 53 -209 105 l-31 30 41 82 c66 132 71 137 133 137 39 0
61 -6 80 -21 31 -25 33 -17 5 22 -12 17 -40 39 -64 50 -50 23 -69 43 -81 82
-5 16 -13 25 -17 21z"/>
<path d="M747 1250 c-3 -8 -8 -37 -10 -65 -6 -52 -26 -102 -49 -117 -10 -7 -9
-11 5 -22 14 -11 17 -31 17 -134 0 -74 -4 -123 -11 -127 -5 -4 -31 -10 -56
-13 -60 -9 -66 -28 -12 -35 23 -3 46 -11 50 -19 5 -7 9 -41 9 -75 0 -48 3 -63
14 -63 8 0 18 14 21 33 4 17 19 52 33 75 23 41 27 43 56 36 17 -4 47 -7 67 -6
l36 1 12 -69 c18 -110 15 -173 -9 -188 -21 -13 -28 -42 -10 -42 10 0 41 -54
38 -67 -1 -4 2 -38 6 -75 5 -49 12 -68 22 -68 8 0 14 10 14 25 0 54 24 128 56
175 l34 50 -20 20 c-11 11 -20 28 -20 38 -1 9 -5 62 -10 117 -4 55 -12 166
-15 247 l-7 147 27 25 c25 23 26 26 9 31 -58 18 -69 30 -84 93 -15 65 -36 81
-31 25 5 -56 -11 -70 -78 -72 l-60 -1 -12 42 c-23 85 -26 94 -32 78z m146
-217 c3 -5 8 -66 12 -136 l7 -128 -64 7 c-35 4 -66 12 -70 17 -3 6 -6 60 -5
121 l2 111 45 6 c25 3 50 7 57 7 6 1 14 -1 16 -5z"/>
<path d="M1160 1214 c0 -43 -1 -46 -22 -40 -84 24 -104 14 -45 -23 32 -20 33
-23 45 -118 6 -54 15 -200 18 -324 7 -225 7 -227 -15 -238 -19 -11 -21 -9 -21
18 0 18 7 34 17 40 16 9 16 11 -2 31 -11 12 -20 25 -19 29 2 13 -9 41 -16 41
-10 0 -20 -26 -20 -50 0 -9 -7 -23 -15 -30 -14 -11 -13 -14 3 -26 11 -7 27
-29 36 -49 10 -20 28 -41 41 -47 19 -9 25 -21 32 -71 10 -78 33 -89 33 -17 0
57 13 90 36 90 15 0 51 28 43 33 -2 2 -16 8 -31 15 l-28 12 0 141 c0 78 2 140
4 138 3 -3 20 -40 39 -84 19 -44 64 -141 101 -215 36 -74 66 -145 66 -156 0
-22 24 -39 41 -28 9 5 13 -2 23 -49 10 -44 25 -31 28 25 l3 53 38 3 c20 2 37
9 37 15 0 7 -24 27 -54 44 -69 42 -96 79 -156 214 -27 61 -63 132 -79 158 -17
26 -31 59 -31 72 0 24 69 105 115 135 21 13 22 19 12 35 -7 11 -18 17 -24 14
-17 -6 -159 108 -177 142 -7 16 -19 47 -25 71 -15 56 -31 54 -31 -4z m136
-275 c-13 -10 -30 -33 -37 -51 l-14 -33 -7 55 c-3 30 -9 75 -13 100 l-7 45 50
-49 51 -49 -23 -18z"/>
<path d="M1646 1200 c-4 -28 -26 -67 -69 -124 -34 -46 -89 -120 -122 -165 -32
-46 -72 -89 -87 -97 -15 -8 -28 -16 -28 -19 0 -2 17 -13 38 -25 21 -13 89 -86
162 -173 l125 -152 3 -122 4 -123 -25 0 c-16 0 -27 7 -30 17 -3 16 -5 16 -12
-2 -5 -11 -16 -25 -24 -32 -14 -11 -14 -12 2 -13 9 0 17 -7 17 -15 0 -8 5 -15
10 -15 6 0 10 5 10 10 0 6 11 10 25 10 24 0 25 -3 25 -54 0 -60 13 -106 31
-106 8 0 9 24 4 84 -7 83 -6 84 14 79 12 -3 24 -9 27 -14 9 -15 21 -10 37 14
13 20 13 25 0 42 -13 19 -15 19 -24 3 -6 -10 -21 -18 -34 -18 l-25 0 0 148 0
148 29 40 c16 21 43 50 59 63 l30 24 -24 37 c-14 20 -28 57 -33 81 l-8 44 -13
-47 c-7 -26 -23 -60 -36 -75 -30 -35 -34 -32 -131 74 l-74 81 48 59 c27 32 61
77 77 101 27 39 46 53 46 33 0 -5 16 -19 35 -32 22 -15 37 -35 40 -54 17 -80
35 -90 35 -19 0 39 5 51 31 75 28 26 29 30 12 36 -10 3 -27 18 -38 31 -11 14
-39 48 -62 75 -24 28 -46 66 -49 84 -9 48 -21 49 -28 3z"/>
<path d="M1936 1230 c-2 -8 -7 -37 -10 -65 -5 -54 -31 -115 -48 -115 -6 0 -4
-8 5 -18 14 -15 17 -41 17 -144 l0 -126 -54 -6 c-67 -9 -87 -36 -27 -36 52 0
65 -18 62 -89 -1 -43 2 -60 13 -64 18 -7 26 1 26 27 0 12 13 44 28 71 21 39
32 49 47 45 11 -2 40 -4 65 -5 54 0 57 -6 67 -143 6 -88 5 -94 -17 -117 l-23
-25 23 -25 c19 -20 26 -44 34 -110 6 -47 15 -87 21 -88 9 -2 14 16 29 105 4
20 23 60 43 89 33 48 34 53 19 65 -21 15 -31 87 -40 264 -4 69 -9 162 -12 207
-6 79 -5 83 20 106 33 30 32 33 -3 40 -42 9 -59 31 -72 97 -13 69 -29 79 -29
19 0 -65 -10 -74 -79 -77 l-60 -2 -10 37 c-6 21 -11 45 -11 53 0 8 -4 22 -10
30 -8 13 -9 13 -14 0z m158 -302 c3 -50 6 -108 6 -130 l0 -38 -62 2 -63 3 -3
122 -3 122 33 4 c91 11 84 18 92 -85z"/>
<path d="M2440 1156 c0 -24 -6 -38 -23 -49 -28 -18 -90 -133 -107 -197 -7 -24
-19 -49 -28 -56 -24 -17 13 -60 59 -68 24 -4 51 -20 78 -46 22 -22 45 -40 51
-40 5 0 12 -16 16 -34 5 -27 -1 -51 -27 -108 -40 -90 -46 -98 -71 -98 -19 0
-54 -33 -57 -55 -1 -5 13 -12 31 -15 29 -4 33 -9 41 -47 9 -47 37 -61 37 -19
0 46 18 76 44 76 22 0 24 3 17 23 -11 28 18 134 59 219 33 68 36 83 17 75 -20
-8 -86 25 -136 67 -24 21 -54 44 -65 52 -21 14 -21 15 16 87 21 39 51 89 68
109 26 31 38 37 76 40 l46 3 -20 22 c-10 13 -22 20 -25 17 -13 -14 -48 10 -62
42 -18 44 -35 44 -35 0z"/>
<path d="M2503 1153 c4 -3 10 -3 14 0 3 4 0 7 -7 7 -7 0 -10 -3 -7 -7z"/>
<path d="M2940 656 c-5 -14 -14 -26 -20 -26 -15 0 -12 -36 4 -49 7 -6 16 -29
20 -51 8 -51 33 -55 27 -4 -1 6 6 31 14 55 14 39 14 45 0 55 -8 6 -15 16 -15
22 0 23 -21 22 -30 -2z"/>
<path d="M2620 625 c0 -8 -7 -18 -15 -21 -8 -4 -15 -12 -15 -19 0 -7 7 -15 15
-19 8 -3 15 -15 15 -27 0 -12 5 -19 13 -16 6 2 11 13 10 23 -1 10 5 23 13 27
18 10 18 27 -1 27 -8 0 -15 6 -15 14 0 8 -4 18 -10 21 -5 3 -10 -1 -10 -10z"/>
<path d="M2274 559 c-14 -28 -14 -34 0 -64 9 -18 16 -38 16 -44 0 -6 5 -11 10
-11 6 0 10 14 10 30 0 22 6 33 21 38 19 7 19 9 5 21 -9 8 -16 21 -16 31 0 32
-29 31 -46 -1z"/>
<path d="M657 546 c-27 -21 -27 -22 -7 -39 16 -13 20 -30 21 -84 l2 -68 8 68
c5 47 13 73 25 82 17 12 17 14 -2 37 l-20 25 -27 -21z"/>
<path d="M1860 555 c0 -9 -10 -25 -22 -35 l-22 -17 22 -12 c12 -6 22 -20 22
-30 0 -11 7 -22 16 -25 22 -9 23 -8 17 14 -3 11 0 26 6 34 9 11 6 22 -14 51
-16 24 -25 32 -25 20z"/>
</g>
</svg>
