<?xml version="1.0" standalone="no"?>
<!DOCTYPE svg PUBLIC "-//W3C//DTD SVG 20010904//EN"
 "http://www.w3.org/TR/2001/REC-SVG-20010904/DTD/svg10.dtd">
<svg version="1.0" xmlns="http://www.w3.org/2000/svg"
 width="300.000000pt" height="172.000000pt" viewBox="0 0 300.000000 172.000000"
 preserveAspectRatio="xMidYMid meet">
<metadata>
Created by potrace 1.10, written by Peter Selinger 2001-2011
</metadata>
<g transform="translate(0.000000,172.000000) scale(0.100000,-0.100000)"
fill="#000000" stroke="none">
<path d="M2665 1694 c-9 -9 -13 -25 -10 -37 3 -12 -8 -74 -25 -137 -17 -63
-37 -139 -45 -169 -12 -49 -32 -78 -44 -65 -10 9 0 128 11 141 8 11 7 12 -6 7
-12 -4 -16 0 -16 15 0 12 -4 21 -10 21 -5 0 -19 18 -30 39 -11 22 -26 44 -33
48 -18 11 -37 47 -37 71 0 29 -26 48 -45 32 -8 -6 -19 -9 -25 -5 -23 14 -20
-26 4 -58 14 -19 35 -58 45 -88 10 -30 30 -79 44 -109 14 -30 29 -72 32 -92 7
-34 5 -38 -14 -38 -12 0 -23 6 -25 13 -2 6 -9 37 -16 67 -7 30 -24 73 -38 95
-15 22 -25 45 -24 52 1 6 -9 24 -22 38 -42 46 -58 29 -110 -120 l-24 -70 -6
40 c-7 44 -39 166 -55 208 -11 29 -48 38 -57 13 -3 -8 0 -40 7 -73 22 -111 22
-120 2 -125 -30 -8 -43 2 -43 33 0 17 -8 36 -20 46 -11 10 -20 25 -20 34 0 32
-34 79 -56 79 -27 0 -36 -22 -28 -64 5 -27 0 -37 -27 -64 -41 -40 -49 -40 -49
-2 0 32 -21 82 -48 113 -16 18 -77 24 -87 7 -3 -5 -20 -9 -36 -7 -27 2 -33 -3
-47 -37 -11 -29 -13 -41 -4 -44 36 -12 -8 -52 -57 -52 -17 0 -33 48 -49 150
-10 61 -35 64 -90 10 -23 -22 -49 -40 -57 -40 -16 0 -34 -29 -28 -46 2 -7 -8
-29 -22 -49 -14 -21 -25 -42 -25 -46 0 -5 -4 -9 -10 -9 -5 0 -10 22 -10 50 0
40 -5 56 -28 81 -26 29 -40 35 -144 56 -17 3 -31 15 -38 34 -15 36 -42 37 -64
4 -20 -30 -20 -42 -1 -61 8 -9 15 -25 15 -37 0 -12 9 -51 20 -87 11 -36 20
-84 20 -108 0 -40 -1 -42 -20 -32 -14 8 -20 21 -21 48 -1 65 -23 120 -69 176
-25 30 -51 57 -58 60 -8 4 -27 -5 -44 -19 -33 -28 -49 -31 -77 -13 -46 28 -70
-37 -36 -101 13 -26 13 -30 -3 -45 -10 -8 -29 -17 -42 -18 -21 -3 -29 6 -56
61 -18 35 -37 67 -42 70 -5 3 -12 16 -16 29 -10 29 -60 31 -76 2 -11 -21 -54
-28 -65 -10 -13 21 -20 8 -17 -32 1 -26 -3 -50 -12 -62 -14 -18 -16 -18 -46 4
-37 27 -62 14 -30 -15 11 -10 20 -27 20 -37 0 -11 9 -22 20 -25 11 -3 20 -6
20 -8 0 -1 -5 -16 -11 -34 -11 -30 -32 -41 -44 -21 -3 6 -11 10 -17 10 -6 0
-2 -10 10 -23 12 -13 22 -30 22 -39 0 -14 -5 -14 -40 3 -51 25 -68 25 -46 0
10 -11 17 -36 18 -61 0 -24 6 -44 13 -46 19 -8 6 -44 -16 -44 -22 0 -33 -16
-18 -26 6 -3 15 0 20 7 6 9 9 -7 9 -44 0 -49 -4 -62 -23 -78 l-22 -20 25 7
c14 3 27 7 30 7 8 2 89 -57 90 -64 0 -4 -9 -9 -20 -12 -30 -8 -24 -27 9 -27
24 0 28 -3 24 -20 -4 -16 -2 -19 11 -14 12 5 16 0 16 -19 0 -14 -4 -29 -10
-32 -5 -3 -10 -17 -10 -31 0 -19 5 -25 17 -22 26 5 40 52 25 90 -6 18 -9 34
-7 37 10 10 55 -43 55 -65 0 -31 16 -39 45 -20 44 29 49 6 52 -216 1 -136 6
-204 14 -214 13 -16 45 -19 54 -4 10 16 -6 60 -22 60 -13 0 -14 24 -11 168 l4
167 33 48 c36 53 43 57 39 25 -5 -35 16 -33 23 1 4 17 12 38 19 46 10 12 10
21 2 38 -24 50 -23 74 3 91 25 16 25 16 25 -14 0 -38 27 -52 46 -25 8 10 14
33 14 50 0 18 5 57 11 88 11 55 13 57 44 57 40 0 55 -26 26 -46 -28 -20 -34
-55 -10 -61 23 -6 25 -29 3 -37 -16 -6 -16 -8 0 -24 9 -10 16 -25 16 -33 0 -8
7 -27 15 -42 8 -15 12 -34 9 -41 -9 -23 16 -29 37 -10 24 22 27 18 21 -33 -3
-34 -8 -42 -28 -46 -18 -3 -24 0 -24 14 0 25 -15 32 -30 14 -15 -19 3 -45 30
-45 43 0 50 -10 50 -70 0 -33 5 -62 10 -65 6 -3 10 -19 10 -36 0 -18 5 -29 14
-29 21 0 26 24 19 90 -6 57 -5 59 20 65 14 4 28 13 31 21 3 9 1 12 -4 9 -14
-9 -12 6 5 35 8 14 14 45 15 68 0 33 6 49 23 63 12 10 25 18 28 19 4 0 12 -28
19 -63 6 -34 16 -67 22 -74 7 -8 3 -10 -13 -6 -18 5 -21 3 -16 -11 4 -10 7
-20 7 -22 0 -2 6 -4 14 -4 17 0 31 -35 21 -51 -4 -6 3 -17 15 -26 12 -8 25
-24 29 -35 6 -18 8 -17 21 9 8 15 22 33 29 39 13 10 13 15 -2 37 -22 33 -22
83 -1 91 9 3 32 6 52 5 32 0 34 -1 15 -9 -31 -13 -30 -34 1 -28 22 5 24 2 19
-27 -3 -21 0 -35 11 -44 9 -7 16 -22 16 -32 0 -11 7 -19 15 -19 10 0 15 10 15
29 0 17 4 32 9 35 11 7 20 -66 26 -209 2 -60 5 -119 6 -130 1 -11 0 -71 -3
-133 -4 -121 5 -152 42 -152 28 0 33 31 14 86 -13 39 -16 86 -16 228 1 167 2
180 22 201 18 19 20 28 12 56 -9 31 -10 32 -11 8 -1 -34 -24 -55 -39 -36 -16
19 -33 103 -25 124 4 10 17 33 29 51 13 18 26 46 29 63 9 42 41 36 37 -6 -1
-17 -6 -37 -9 -45 -12 -27 -11 -55 2 -70 7 -8 16 -28 21 -45 l8 -30 4 28 c2
15 10 27 18 27 8 0 19 11 23 24 5 13 17 26 26 30 10 3 15 12 11 21 -9 25 11
65 33 65 11 0 23 5 26 10 4 6 -5 10 -21 10 -26 0 -27 0 -9 20 12 13 14 20 6
20 -16 0 -5 75 16 106 11 18 11 23 1 27 -10 4 -11 8 0 23 22 33 25 46 14 53
-14 8 -20 63 -7 67 16 6 44 -77 38 -116 -2 -19 0 -67 4 -106 6 -47 5 -77 -1
-88 -8 -12 -8 -19 1 -24 6 -4 15 -21 19 -37 4 -17 15 -42 25 -56 10 -14 16
-29 12 -33 -9 -9 -4 -87 7 -100 5 -7 11 -84 12 -171 l4 -160 24 0 c22 0 25 5
28 38 2 24 -1 39 -10 42 -11 4 -13 39 -10 171 4 160 5 166 29 190 36 36 28 68
-18 72 -43 4 -49 16 -49 102 0 30 -5 113 -12 184 l-11 128 24 19 c33 26 39 24
39 -14 0 -21 -7 -36 -20 -45 -25 -16 -26 -36 -1 -29 18 4 19 0 14 -74 -6 -86
13 -198 35 -207 8 -2 22 4 32 14 17 17 18 24 7 62 -15 55 -4 63 78 60 60 -3
60 -3 58 -33 -1 -16 2 -45 7 -64 l9 -34 -63 7 -64 6 -11 -31 c-13 -38 -1 -66
31 -71 14 -2 25 -14 33 -38 l12 -35 6 63 c3 35 7 65 9 68 3 2 27 4 54 5 29 1
57 8 68 18 18 15 19 15 13 -2 -4 -12 -1 -20 11 -24 20 -8 51 -43 51 -58 0 -5
-11 3 -24 20 -21 25 -25 27 -31 12 -8 -21 9 -43 50 -64 l29 -15 -23 -18 c-21
-16 -22 -18 -5 -27 16 -9 15 -13 -7 -52 -12 -24 -31 -57 -40 -74 -25 -46 -23
-86 5 -96 32 -12 50 -2 43 24 -4 17 4 32 30 61 l37 38 -7 -39 c-13 -74 -11
-97 5 -108 9 -6 24 -7 34 -3 16 6 17 16 13 84 -5 66 -3 81 13 101 10 13 19 32
19 42 0 17 3 18 21 9 30 -17 34 -5 15 39 -20 44 -15 76 14 84 14 4 22 21 31
65 19 89 20 86 60 -121 5 -27 7 -53 4 -58 -3 -5 3 -39 14 -76 11 -38 22 -96
26 -131 4 -34 13 -69 21 -77 10 -10 14 -42 14 -118 0 -79 4 -107 14 -117 12
-9 16 -6 21 22 3 18 5 74 3 123 -2 75 0 93 14 105 15 13 16 19 3 54 -25 70
-27 86 -10 80 25 -10 30 25 6 42 -11 8 -21 24 -21 34 0 10 -4 21 -9 24 -16 10
-19 55 -4 67 16 14 9 45 -18 75 -22 24 -24 37 -6 65 10 18 9 23 -15 42 -31 25
-55 80 -39 85 6 2 11 10 11 18 0 8 5 14 10 14 6 0 10 -5 10 -11 0 -5 5 -7 10
-4 16 10 12 19 -12 30 -34 15 -35 64 -4 120 14 25 26 56 26 69 0 17 9 27 30
36 35 15 37 21 10 45 -29 26 -27 57 3 50 15 -4 28 -1 36 8 10 12 8 18 -8 29
-20 14 -20 14 2 39 20 21 23 34 22 109 -1 86 -12 123 -39 133 -9 4 -22 -1 -31
-9z m-1729 -276 c27 -13 30 -35 12 -85 -7 -20 -19 -33 -29 -33 -20 0 -31 23
-22 46 3 9 0 20 -7 24 -9 5 -9 13 -2 26 12 22 -7 65 -40 88 -22 16 -22 16 -3
30 19 13 21 11 44 -36 13 -27 34 -54 47 -60z m256 72 c14 -71 -11 -169 -43
-170 -11 0 -27 51 -38 121 -16 94 -17 91 31 87 39 -3 43 -5 50 -38z m562 31
c3 -5 8 -29 11 -52 3 -24 12 -63 20 -87 26 -76 18 -92 -46 -92 l-30 0 2 113
c1 61 4 115 6 120 6 10 31 9 37 -2z m-947 -28 c-4 -3 -10 -3 -14 0 -3 4 0 7 7
7 7 0 10 -3 7 -7z m-272 -82 c8 -37 60 -117 82 -125 23 -9 43 12 43 45 l0 30
31 -17 c17 -9 42 -14 55 -11 13 2 21 0 18 -5 -3 -4 2 -16 12 -25 24 -25 13
-171 -19 -230 -12 -24 -25 -43 -29 -43 -12 0 -9 95 3 107 6 6 9 21 7 34 -3 23
-8 24 -93 31 -49 3 -108 9 -130 13 -67 12 -87 -39 -27 -64 17 -7 33 -27 44
-52 10 -24 26 -43 38 -46 14 -4 20 -14 20 -32 0 -25 -3 -27 -35 -23 -44 5 -46
-14 -2 -22 32 -6 32 -7 29 -56 -2 -27 -8 -50 -13 -50 -5 0 -23 15 -39 34 -17
18 -43 39 -60 46 -19 8 -33 22 -37 38 -5 22 -38 58 -77 85 -8 5 -8 9 1 15 6 4
10 20 9 35 -2 18 3 31 14 37 9 5 28 37 40 70 13 33 31 71 40 83 10 12 25 48
34 80 18 61 30 66 41 18z m1105 -11 l0 -49 -30 17 c-16 9 -34 29 -39 44 -10
28 -9 29 57 37 8 1 12 -15 12 -49z m264 -7 c-1 -33 -7 -50 -20 -60 -18 -13
-19 -11 -24 24 -5 29 -1 43 14 61 11 12 22 22 25 22 3 0 5 -21 5 -47z m442 0
c31 -65 24 -206 -12 -261 l-17 -26 -10 25 c-18 48 -8 299 13 299 4 0 16 -17
26 -37z m-1052 9 c8 -14 -10 -101 -38 -176 -14 -38 -23 -73 -20 -78 3 -4 -1
-8 -9 -8 -18 0 -43 28 -56 61 -8 23 -6 29 18 46 29 22 81 113 81 144 0 19 15
26 24 11z m-534 -17 c0 -19 -24 -29 -47 -20 -16 6 -15 8 7 20 32 18 40 18 40
0z m711 -16 c-16 -15 -19 -28 -16 -71 2 -33 8 -54 17 -56 7 -2 23 -9 36 -15
32 -15 54 0 72 51 8 23 17 42 20 42 3 0 16 -9 30 -20 22 -17 23 -22 13 -39
-17 -28 -16 -48 3 -59 18 -10 16 -72 -4 -127 -6 -16 -15 -52 -19 -80 -12 -76
-29 -52 -25 36 4 68 2 78 -20 104 l-25 28 -62 -14 c-66 -14 -87 -29 -77 -54 4
-11 21 -15 63 -15 l58 0 -24 -19 c-19 -15 -25 -30 -29 -75 -3 -36 -9 -55 -16
-53 -6 2 -11 12 -11 23 0 25 -14 46 -25 39 -5 -3 -15 3 -22 15 -7 11 -18 20
-25 20 -29 0 -38 36 -33 135 5 83 9 100 25 109 36 21 65 55 65 77 0 23 29 51
43 42 5 -3 -1 -14 -12 -24z m629 -8 c0 -21 -6 -32 -20 -36 -28 -9 -40 2 -40
36 0 26 3 29 30 29 27 0 30 -3 30 -29z m-195 -50 c-3 -6 -15 -16 -26 -21 -15
-9 -19 -7 -19 5 0 9 10 19 23 24 25 10 32 7 22 -8z m-839 -33 c5 -7 2 -9 -9
-5 -10 4 -17 0 -20 -11 -3 -12 -5 -11 -6 6 -1 23 22 31 35 10z m1415 -50 c3
-78 -5 -94 -36 -71 -19 14 -24 27 -25 61 0 40 1 42 30 42 27 0 30 -3 31 -32z
m-338 -20 c-1 -24 -5 -66 -8 -95 l-7 -52 -74 -3 c-64 -3 -74 -1 -74 14 0 9 5
20 11 23 5 4 9 23 8 43 -6 95 5 112 47 67 28 -30 53 -24 61 16 3 18 12 29 22
29 13 0 16 -9 14 -42z m-1076 15 c-4 -3 -7 0 -7 7 0 7 3 10 7 7 3 -4 3 -10 0
-14z m-7 -28 c0 6 4 5 8 -1 4 -7 5 -63 2 -125 -5 -106 -6 -114 -25 -114 -22 0
-21 -8 -17 177 2 83 3 90 17 72 8 -10 15 -14 15 -9z m1174 -7 c3 -13 6 -34 6
-47 0 -24 23 -112 41 -159 14 -37 38 -22 62 37 12 30 27 56 32 58 6 1 21 -13
34 -32 22 -32 22 -39 12 -81 -7 -25 -18 -56 -25 -67 -8 -12 -17 -41 -21 -64
-4 -24 -10 -43 -14 -43 -4 0 -15 13 -24 30 -10 16 -34 50 -52 75 -19 25 -35
54 -35 64 0 21 -23 44 -33 34 -4 -3 -7 20 -7 53 0 32 -3 83 -6 112 -6 43 -4
52 8 52 9 0 18 -10 22 -22z m219 -58 c18 -21 21 -38 11 -64 -4 -11 -12 -7 -35
18 -16 19 -29 41 -29 50 0 22 32 20 53 -4z m-1184 -52 c13 -29 37 -72 52 -94
28 -41 28 -42 11 -75 -16 -32 -17 -32 -20 -11 -3 19 -6 21 -18 11 -11 -9 -14
-7 -14 13 0 13 -5 29 -10 34 -10 10 -50 142 -50 164 0 28 28 4 49 -42z m111
-209 c0 -11 -12 -18 -37 -22 -51 -9 -54 -1 -14 35 34 31 50 27 51 -13z m1310
-243 c0 -3 -4 -8 -10 -11 -5 -3 -10 -1 -10 4 0 6 5 11 10 11 6 0 10 -2 10 -4z"/>
<path d="M1260 1020 c0 -7 3 -10 7 -7 3 4 3 10 0 14 -4 3 -7 0 -7 -7z"/>
<path d="M851 946 c-12 -14 -5 -26 16 -26 15 0 18 26 4 34 -5 3 -14 0 -20 -8z"/>
<path d="M812 898 c3 -7 17 -15 33 -16 25 -3 27 -2 16 12 -16 19 -55 22 -49 4z"/>
<path d="M789 873 c-2 -12 1 -46 7 -70 5 -24 37 -32 49 -13 9 15 -26 90 -42
90 -7 0 -14 -3 -14 -7z"/>
<path d="M444 719 c-9 -15 11 -33 30 -26 9 4 13 13 10 22 -7 17 -30 20 -40 4z"/>
<path d="M674 688 c-22 -25 -21 -68 1 -68 18 0 35 31 35 64 0 32 -10 33 -36 4z"/>
<path d="M2552 604 c1 -9 9 -19 16 -22 9 -3 13 2 10 14 -1 9 -9 19 -16 22 -9
3 -13 -2 -10 -14z"/>
<path d="M903 508 c-19 -25 -21 -46 -7 -67 19 -26 40 -27 54 -2 15 29 12 52
-7 67 -23 17 -28 17 -40 2z"/>
<path d="M1300 490 c0 -5 5 -10 10 -10 6 0 10 5 10 10 0 6 -4 10 -10 10 -5 0
-10 -4 -10 -10z"/>
<path d="M1270 344 c0 -8 5 -12 10 -9 6 4 8 11 5 16 -9 14 -15 11 -15 -7z"/>
</g>
</svg>
