<svg preserveAspectRatio="xMidYMid meet" viewBox="0 4.5 300 127.5" xmlns="http://www.w3.org/2000/svg" version="1.0" style="max-height: 500px" width="300" height="127.5">
<metadata>
Created by potrace 1.10, written by Peter Selinger 2001-2011
</metadata>
<g stroke="none" fill="#000000" transform="translate(0.000000,132.000000) scale(0.100000,-0.100000)">
<path d="M1454 1242 c3 -24 13 -53 23 -64 10 -11 18 -32 19 -47 0 -14 4 -34 8&#xA;-43 8 -18 -32 -66 -79 -95 -18 -11 -17 -12 10 -6 36 7 81 41 90 66 4 10 1 32&#xA;-5 48 -12 28 -10 62 5 102 4 10 3 17 -4 17 -6 0 -11 -9 -11 -20 0 -46 -34 -9&#xA;-52 55 -6 25 -7 23 -4 -13z"/>
<path d="M1512 1250 c0 -14 2 -19 5 -12 2 6 2 18 0 25 -3 6 -5 1 -5 -13z"/>
<path d="M1273 1244 c14 -26 9 -113 -9 -158 -22 -53 -31 -57 -39 -18 -8 38&#xA;-46 110 -69 130 -13 12 -11 4 7 -23 15 -22 27 -47 27 -55 0 -9 5 -21 12 -28 8&#xA;-8 12 -47 13 -105 1 -54 10 -130 23 -186 17 -77 21 -130 23 -300 1 -148 -2&#xA;-214 -11 -230 -13 -25 -6 -91 10 -91 5 0 7 7 4 15 -7 18 3 65 14 65 4 -1 24&#xA;-23 46 -51 21 -28 40 -48 43 -46 5 6 -24 60 -55 104 l-23 33 24 32 c14 18 39&#xA;60 55 93 17 33 49 96 71 140 23 44 41 90 41 103 0 32 -24 85 -62 138 -26 37&#xA;-31 52 -29 91 1 26 7 53 12 59 7 8 6 14 -1 19 -5 3 -10 21 -10 39 0 18 -7 41&#xA;-15 52 -8 10 -15 37 -15 59 -1 22 -5 58 -10 80 -6 30 -8 17 -6 -55 2 -52 7&#xA;-107 11 -122 5 -20 2 -34 -14 -54 -26 -33 -28 -53 -3 -31 10 10 22 17 26 17 8&#xA;0 -2 -77 -11 -93 -2 -4 -23 6 -46 23 -22 16 -47 30 -55 30 -22 0 -9 92 23 165&#xA;22 48 26 69 21 105 -3 24 -11 49 -18 55 -8 7 -9 7 -5 -1z m118 -476 c52 -42&#xA;51 -106 -1 -212 -61 -122 -83 -147 -69 -73 4 23 8 92 8 152 1 89 -3 118 -19&#xA;154 -11 24 -20 45 -20 48 0 4 66 -42 101 -69z m-80 -102 c5 -62 5 -120 0 -143&#xA;-7 -30 -9 -16 -10 72 -1 61 -4 128 -8 150 -3 22 -3 37 1 33 4 -3 12 -54 17&#xA;-112z"/>
<path d="M390 1128 l-1 -33 -15 28 c-18 34 -28 36 -12 2 8 -19 8 -34 0 -62 -7&#xA;-21 -13 -49 -14 -63 -5 -41 -22 -28 -37 28 -8 32 -19 52 -28 52 -16 0 -14 -9&#xA;17 -93 23 -59 11 -68 -49 -37 -53 27 -53 8 0 -27 33 -21 57 -28 108 -31 50 -3&#xA;70 -8 77 -21 33 -60 64 -132 70 -164 l7 -39 -54 37 -54 37 41 -43 c74 -78 85&#xA;-118 61 -214 l-13 -50 -19 28 c-10 15 -20 26 -22 24 -6 -7 29 -91 41 -99 8 -5&#xA;7 -11 -2 -20 -9 -9 -12 -9 -12 5 0 21 -20 22 -65 3 -45 -19 -45 -26 0 -19 32&#xA;5 35 4 29 -13 -11 -30 -56 -63 -89 -65 -20 -1 -24 -3 -11 -6 15 -4 16 -7 6&#xA;-13 -9 -5 -18 -3 -25 7 -17 24 -104 28 -161 9 -26 -9 -72 -16 -101 -16 -34 0&#xA;-52 -4 -48 -10 9 -14 58 -12 127 6 33 8 65 13 70 12 6 -2 -3 -20 -21 -40 -45&#xA;-52 -43 -73 5 -41 21 13 30 14 45 5 22 -14 26 0 4 18 -8 6 -20 9 -27 5 -7 -4&#xA;-4 2 7 12 12 10 24 26 28 36 15 39 47 13 47 -39 0 -27 7 -30 29 -10 9 7 28 16&#xA;42 20 34 7 51 -12 60 -67 l6 -42 2 43 c0 24 -3 51 -9 61 -7 14 -5 23 10 36 11&#xA;10 20 29 20 42 0 16 6 23 19 23 11 0 21 6 23 12 3 9 16 4 40 -14 26 -20 39&#xA;-40 48 -75 12 -47 13 -47 22 -20 15 42 45 36 59 -13 17 -55 29 -51 16 5 -8 35&#xA;-18 50 -44 66 -18 11 -33 25 -33 30 0 5 -6 9 -14 9 -21 0 -28 31 -11 49 9 9&#xA;30 36 48 61 29 41 32 43 35 22 2 -14 20 -33 48 -50 53 -34 94 -86 94 -122 0&#xA;-16 11 -36 27 -51 20 -17 23 -18 10 -3 -30 36 -19 42 33 17 38 -18 50 -29 50&#xA;-46 0 -12 9 -35 19 -51 18 -27 19 -27 26 -7 3 11 3 25 0 31 -3 6 1 24 9 42 20&#xA;40 12 68 -19 68 -13 0 -27 -4 -30 -10 -3 -5 -10 -10 -16 -10 -13 0 -11 34 2&#xA;47 6 6 8 16 5 22 -8 13 -46 -23 -46 -44 0 -22 -27 -18 -44 7 -21 30 -20 47 5&#xA;74 12 12 22 34 23 48 2 35 10 33 35 -8 32 -51 47 -61 54 -35 4 16 -2 30 -23&#xA;49 l-28 26 31 -4 32 -5 -25 21 c-50 43 -58 54 -75 114 -19 70 -17 73 55 84 25&#xA;4 39 9 33 11 -7 3 -13 11 -13 19 0 16 -36 19 -45 4 -3 -5 -22 -10 -42 -10&#xA;l-36 0 6 48 c9 75 22 98 66 118 35 16 41 23 41 52 0 17 -3 32 -6 32 -3 0 -21&#xA;-12 -40 -26 -25 -20 -34 -23 -34 -11 0 8 6 17 13 20 13 5 37 70 37 101 0 30&#xA;-18 16 -28 -21 -5 -21 -10 -31 -11 -22 -2 25 -28 31 -34 8 -3 -10 -1 -22 4&#xA;-25 5 -3 9 -13 9 -22 0 -19 -13 0 -49 73 -18 36 -20 37 -15 10 4 -16 13 -40&#xA;20 -52 8 -12 14 -34 14 -49 0 -26 -1 -26 -18 -11 -10 10 -23 17 -28 17 -6 0&#xA;-18 15 -27 33 -11 19 -15 23 -11 9 l5 -22 -35 21 c-22 13 -38 31 -42 48 -10&#xA;44 -12 47 -13 17 -1 -30 35 -71 112 -129 33 -25 37 -33 37 -71 0 -30 -5 -46&#xA;-15 -50 -8 -3 -15 0 -15 6 0 9 -3 9 -11 1 -8 -8 -8 -17 1 -32 6 -12 15 -45 20&#xA;-74 5 -29 12 -62 16 -75 5 -19 3 -21 -12 -16 -12 5 -6 -7 18 -32 29 -30 38&#xA;-50 43 -89 6 -43 4 -54 -15 -75 -13 -16 -23 -21 -26 -13 -3 6 -27 26 -53 43&#xA;l-48 30 8 48 c5 25 18 80 30 120 23 83 20 101 -22 136 -17 14 -27 30 -24 36 3&#xA;5 0 19 -8 31 -11 15 -16 17 -20 7 -3 -8 -9 -3 -17 15 -8 15 -28 37 -47 48 -19&#xA;12 -37 34 -43 52 l-10 32 5 -32 c4 -31 3 -33 -25 -33 -17 0 -30 4 -30 9 0 5&#xA;-11 12 -24 15 -16 4 -33 23 -50 58 -22 43 -25 60 -20 105 4 29 4 53 0 53 -3 0&#xA;-6 -15 -6 -32z m14 -161 l28 -48 -39 7 c-53 9 -56 13 -39 40 9 13 16 31 16 40&#xA;0 21 -1 21 34 -39z m168 -86 c15 -8 29 -20 32 -27 4 -11 -1 -11 -31 1 -19 8&#xA;-37 15 -39 15 -2 0 -4 7 -4 16 0 8 3 14 8 12 4 -2 19 -10 34 -17z m38 -109&#xA;c25 -22 50 -53 57 -71 10 -28 7 -38 -27 -108 -21 -43 -39 -71 -39 -63 -1 13&#xA;-2 13 -11 0 -16 -25 -19 -7 -5 34 10 28 11 60 5 118 -6 66 -12 84 -34 107 -57&#xA;59 -19 47 54 -17z m-43 -284 c-3 -8 -6 -5 -6 6 -1 11 2 17 5 13 3 -3 4 -12 1&#xA;-19z m328 -8 c3 -5 4 -10 1 -10 -3 0 -8 5 -11 10 -3 6 -4 10 -1 10 3 0 8 -4&#xA;11 -10z m-352 -120 c3 -11 1 -18 -4 -14 -5 3 -9 12 -9 20 0 20 7 17 13 -6z&#xA;m417 -121 c0 -5 -4 -9 -10 -9 -5 0 -10 7 -10 16 0 8 5 12 10 9 6 -3 10 -10 10&#xA;-16z m9 -79 c1 -13 0 -13 -9 0 -5 8 -9 24 -9 35 0 20 0 20 9 0 5 -11 9 -27 9&#xA;-35z"/>
<path d="M1080 1150 c0 -7 3 -10 7 -7 3 4 3 10 0 14 -4 3 -7 0 -7 -7z"/>
<path d="M1630 1150 c0 -7 3 -10 7 -7 3 4 3 10 0 14 -4 3 -7 0 -7 -7z"/>
<path d="M2271 1144 c-1 -12 -10 -33 -21 -47 -11 -14 -20 -32 -20 -41 0 -21&#xA;-38 -21 -62 1 -11 10 -18 12 -18 4 0 -6 10 -19 21 -29 41 -33 49 -44 49 -64 0&#xA;-17 -4 -19 -30 -13 -34 7 -34 9 -19 -69 12 -66 6 -90 -49 -206 -37 -78 -50&#xA;-79 -51 -1 -1 34 -38 146 -66 202 -17 33 -12 69 10 69 9 0 12 -6 9 -15 -4 -8&#xA;-1 -15 6 -15 8 0 10 9 6 25 -5 18 3 39 29 79 19 30 35 60 35 67 0 22 -42 -25&#xA;-62 -68 -19 -43 -38 -57 -38 -28 0 8 -9 23 -21 33 -11 9 -30 37 -42 62 -19 38&#xA;-23 41 -25 22 -2 -13 6 -39 18 -59 24 -41 25 -39 -61 -124 -43 -42 -48 -45&#xA;-53 -26 -3 11 -2 49 1 85 5 48 3 63 -5 58 -7 -4 -12 -32 -12 -67 l0 -60 -22&#xA;16 c-13 8 -31 37 -41 63 l-18 47 6 -40 c4 -22 12 -50 18 -61 7 -12 20 -35 29&#xA;-52 l17 -30 -51 -58 c-28 -32 -62 -81 -74 -109 -13 -27 -24 -44 -24 -37 0 6&#xA;-9 12 -19 12 -27 0 -81 65 -81 98 0 15 9 42 20 60 15 24 27 32 49 32 22 0 36&#xA;9 54 33 26 35 42 71 28 62 -5 -3 -12 5 -14 17 -3 15 -5 9 -6 -14 -1 -27 -6&#xA;-38 -16 -38 -9 0 -18 -6 -21 -14 -11 -29 -29 -4 -31 43 -2 40 1 51 22 69 30&#xA;26 31 47 6 85 -14 22 -20 25 -24 13 -3 -8 1 -20 9 -26 20 -18 17 -35 -10 -65&#xA;l-25 -26 -15 28 c-22 41 -20 4 3 -39 18 -35 18 -38 1 -65 -10 -15 -39 -47 -64&#xA;-71 -25 -23 -46 -46 -46 -50 0 -9 47 -80 82 -123 15 -20 29 -53 33 -79 5 -38&#xA;2 -53 -22 -98 -15 -30 -40 -61 -55 -70 -23 -14 -30 -14 -55 -2 -15 8 -31 16&#xA;-35 18 -5 2 -8 -26 -8 -63 0 -52 5 -73 21 -97 12 -16 22 -41 22 -54 0 -20 2&#xA;-22 13 -13 12 10 13 1 9 -52 l-4 -64 9 58 c9 54 7 61 -16 98 -18 30 -24 51&#xA;-22 81 5 64 23 57 38 -14 7 -35 17 -67 21 -73 5 -5 9 -17 9 -27 0 -10 5 -18&#xA;11 -18 11 0 9 49 -5 125 -2 11 -1 15 1 8 2 -7 10 -10 17 -7 23 9 76 -45 76&#xA;-77 0 -16 -5 -29 -12 -29 -16 0 -58 -64 -58 -87 0 -12 7 -7 20 15 11 17 24 32&#xA;29 32 8 0 19 -41 35 -130 3 -14 3 12 1 57 -3 46 -2 90 1 98 9 22 40 18 64 -7&#xA;17 -18 19 -30 14 -68 -5 -35 -2 -55 11 -76 9 -16 13 -20 8 -9 -4 11 -8 50 -8&#xA;87 0 66 -1 69 -40 106 -22 21 -51 51 -65 67 -14 17 -34 35 -45 41 -18 10 -17&#xA;14 22 80 25 43 46 93 53 132 11 56 30 94 30 61 0 -7 15 -29 33 -49 37 -39 107&#xA;-154 107 -175 0 -8 5 -17 10 -20 15 -9 12 -25 -5 -25 -25 0 -33 -32 -38 -170&#xA;-4 -108 -3 -122 4 -70 5 36 12 91 15 122 3 32 9 58 13 58 21 0 43 -43 48 -96&#xA;4 -33 15 -77 25 -99 17 -34 18 -36 13 -10 -4 17 -10 65 -15 108 -5 51 -14 85&#xA;-26 98 -17 18 -16 19 14 19 18 0 32 -4 32 -8 0 -5 9 -18 20 -30 34 -36 43 -71&#xA;25 -98 -8 -13 -15 -34 -14 -46 1 -18 3 -17 10 9 5 18 14 35 19 38 6 3 10 23&#xA;10 43 0 35 32 122 45 122 19 0 44 -23 55 -50 9 -22 11 -55 6 -111 -6 -70 -5&#xA;-79 7 -67 8 8 18 30 22 49 6 30 73 131 97 145 5 3 17 -5 28 -18 15 -18 19 -39&#xA;20 -91 0 -38 4 -66 9 -63 5 3 7 16 4 29 -5 22 -5 22 10 2 19 -25 33 -14 18 14&#xA;-10 17 -5 26 31 60 24 22 53 41 66 41 24 0 28 -10 11 -27 -7 -7 -2 -20 16 -42&#xA;26 -30 27 -33 12 -69 -24 -60 -31 -122 -15 -122 9 0 14 12 14 38 1 20 9 58 20&#xA;84 l18 47 -23 25 c-14 15 -21 31 -17 41 5 14 8 14 37 0 24 -13 37 -14 58 -6&#xA;67 25 88 24 135 -11 25 -18 45 -38 46 -44 0 -11 40 -25 128 -43 24 -5 53 -19&#xA;63 -30 22 -23 43 -28 37 -8 -6 20 -110 66 -150 67 -40 0 -59 17 -37 31 10 6 7&#xA;9 -11 9 -14 0 -48 16 -75 36 -45 32 -54 35 -95 29 -25 -4 -50 -11 -57 -17 -8&#xA;-6 -20 -5 -35 3 -20 11 -20 14 -5 17 9 2 17 10 17 19 0 12 107 223 113 223 1&#xA;0 17 -4 35 -9 20 -6 32 -6 32 0 0 5 -7 9 -16 9 -8 0 -12 5 -9 10 3 6 -4 10&#xA;-17 10 -18 0 -15 4 16 19 34 18 41 18 77 6 21 -8 39 -10 39 -6 0 5 -10 11 -22&#xA;15 -22 5 -22 6 -3 20 25 19 21 19 -39 1 -27 -8 -55 -15 -63 -15 -25 0 -13 46&#xA;21 83 19 20 29 40 24 43 -5 4 -7 22 -3 41 4 24 3 33 -4 28 -6 -3 -11 -19 -11&#xA;-34 0 -19 -13 -43 -40 -72 -40 -43 -41 -44 -101 -42 -73 2 -94 16 -63 41 12 9&#xA;29 42 38 72 8 31 29 70 46 89 20 21 28 37 22 43 -6 6 -2 18 12 33 11 13 27 30&#xA;34 39 8 9 21 15 30 12 12 -4 26 10 50 48 17 30 32 57 32 60 0 15 -40 -16 -56&#xA;-43 -18 -30 -52 -47 -67 -32 -4 4 1 31 12 59 25 63 17 69 -10 8 -12 -27 -17&#xA;-55 -13 -73 7 -37 -26 -73 -47 -50 -12 12 -15 12 -25 -1 -20 -27 -35 -4 -29&#xA;43 5 32 2 54 -13 89 -12 25 -24 46 -27 46 -3 0 -4 -4 0 -10 8 -13 16 -140 8&#xA;-140 -13 0 -32 37 -33 65 0 17 -7 41 -14 54 -12 22 -13 20 -8 -28 4 -41 1 -56&#xA;-14 -72 -17 -19 -55 -41 -76 -43 -3 -1 -10 -4 -14 -8 -4 -5 -13 -8 -21 -8 -20&#xA;0 -16 61 8 135 11 36 18 71 16 77 -3 7 -6 3 -6 -8z m-283 -151 c2 -8 -5 -13&#xA;-17 -13 -12 0 -21 6 -21 16 0 18 31 15 38 -3z m471 -56 l25 -17 -21 -22 c-34&#xA;-37 -74 -108 -68 -118 4 -6 -7 -34 -24 -64 -38 -66 -41 -105 -8 -107 93 -6&#xA;167 -21 167 -36 0 -8 -16 -49 -36 -91 -35 -74 -37 -75 -49 -52 -11 21 -10 32&#xA;6 75 13 33 15 44 5 32 -14 -18 -15 -18 -18 4 -2 12 -10 24 -18 26 -13 4 -13 3&#xA;0 -7 11 -9 12 -13 3 -17 -7 -2 -13 -15 -13 -27 0 -13 -8 -30 -18 -39 -17 -15&#xA;-20 -15 -50 6 -32 22 -32 22 -24 82 4 33 7 135 7 228 0 118 3 167 11 167 7 0&#xA;22 8 34 18 22 18 23 18 44 -3 11 -11 32 -28 45 -38z m-490 -4 c-5 -14 -8 -32&#xA;-5 -40 7 -18 -28 -17 -44 2 -7 8 -16 15 -21 15 -20 0 -7 -31 26 -63 21 -20 33&#xA;-40 30 -49 -3 -8 6 -32 21 -53 43 -64 56 -113 58 -220 2 -55 5 -107 7 -115 9&#xA;-33 -37 -20 -84 22 l-47 43 26 65 c14 36 31 77 39 92 8 14 15 34 15 45 0 23&#xA;-41 84 -97 145 -23 26 -43 51 -43 55 1 14 94 83 112 83 15 0 16 -4 7 -27z&#xA;m297 -163 c-6 -99 -14 -153 -43 -268 -4 -16 -8 -20 -13 -12 -5 8 -10 1 -15&#xA;-19 -4 -17 -15 -36 -26 -41 -16 -9 -17 -14 -6 -30 9 -16 9 -24 -1 -40 -6 -11&#xA;-12 -26 -12 -33 0 -7 -11 -28 -25 -47 l-24 -33 -11 27 c-5 15 -10 32 -10 38 0&#xA;6 -7 20 -16 30 -16 17 -15 19 10 39 14 11 26 28 26 38 0 9 5 22 10 27 6 6 20&#xA;44 31 85 11 41 26 81 33 89 15 18 36 108 36 155 0 19 4 45 10 59 6 17 6 35 0&#xA;52 -15 38 -2 49 27 22 25 -23 25 -24 19 -138z m-360 -22 c38 -54 40 -93 9&#xA;-158 -14 -30 -33 -66 -44 -79 l-19 -24 -7 31 c-7 36 8 94 31 112 7 7 14 20 14&#xA;29 0 9 -11 0 -24 -21 l-23 -38 -23 25 c-19 20 -22 32 -17 65 6 46 -9 44 -21&#xA;-3 -7 -28 -13 -32 -48 -35 -21 -1 -34 1 -28 5 6 4 27 39 45 77 19 39 42 72 54&#xA;76 27 10 69 -15 101 -62z m-101 -132 c33 -14 34 -17 25 -42 -8 -20 -8 -36 1&#xA;-56 9 -23 9 -35 -1 -56 l-12 -27 -13 40 c-6 22 -24 63 -38 92 -15 29 -27 55&#xA;-27 58 0 9 30 5 65 -9z m485 -106 c0 -11 9 -25 20 -32 23 -15 27 -38 5 -38 -8&#xA;0 -15 6 -15 14 0 7 -7 19 -15 26 -12 10 -15 10 -15 -2 0 -8 6 -20 13 -27 10&#xA;-11 9 -13 -3 -9 -18 6 -24 31 -16 64 8 29 26 32 26 4z m-243 -22 c-3 -8 -6 -5&#xA;-6 6 -1 11 2 17 5 13 3 -3 4 -12 1 -19z m-71 -137 c-7 -9 -20 -29 -29 -45&#xA;l-15 -30 -16 32 c-9 17 -27 34 -39 37 l-23 6 23 48 23 49 45 -41 c39 -35 43&#xA;-43 31 -56z m437 57 c22 -1 27 -6 27 -24 0 -32 -34 -64 -66 -64 -17 0 -36 -12&#xA;-57 -35 -17 -19 -34 -35 -39 -35 -4 0 -19 23 -33 50 -14 28 -30 50 -35 50 -6&#xA;0 -10 7 -10 15 0 26 101 57 155 48 17 -2 42 -5 58 -5z"/>
<path d="M1091 1114 c0 -11 3 -14 6 -6 3 7 2 16 -1 19 -3 4 -6 -2 -5 -13z"/>
<path d="M270 1111 c0 -6 4 -13 10 -16 6 -3 7 1 4 9 -7 18 -14 21 -14 7z"/>
<path d="M956 998 c36 -90 38 -97 25 -78 -17 24 -14 -36 3 -63 16 -26 33 -80&#xA;18 -58 -19 27 -25 -14 -26 -189 l-1 -177 28 -39 c15 -22 27 -51 27 -65 0 -20&#xA;2 -21 11 -9 8 11 9 6 5 -20 -5 -28 -4 -32 5 -16 15 24 5 84 -19 116 -18 24&#xA;-18 29 -5 75 9 28 17 75 20 105 5 64 20 80 74 80 43 0 45 -6 56 -161 4 -71 3&#xA;-99 -5 -99 -7 0 -11 -10 -11 -22 1 -13 -3 -35 -9 -50 -9 -23 -8 -31 9 -50 l21&#xA;-23 -5 23 c-3 14 7 53 25 95 28 67 30 78 24 152 -19 239 -44 334 -102 385&#xA;l-34 29 30 21 c34 24 40 45 11 37 -17 -4 -20 1 -23 32 l-3 36 -15 -48 c-8 -27&#xA;-22 -54 -30 -62 -23 -21 -59 1 -87 55 -36 67 -46 60 -17 -12z m158 -147 c8&#xA;-15 18 -45 21 -66 4 -22 12 -48 17 -59 13 -24 2 -33 -53 -41 l-46 -7 1 79 c1&#xA;43 -2 90 -6 104 -7 24 -6 25 23 21 19 -3 34 -13 43 -31z m-65 -67 c1 -46 -10&#xA;-95 -20 -88 -5 3 -7 9 -4 14 3 4 6 38 7 76 2 66 16 64 17 -2z m-12 -221 c-3&#xA;-10 -5 -4 -5 12 0 17 2 24 5 18 2 -7 2 -21 0 -30z"/>
<path d="M330 1010 c0 -7 3 -10 7 -7 3 4 3 10 0 14 -4 3 -7 0 -7 -7z"/>
<path d="M2420 1010 c0 -7 3 -10 7 -7 3 4 3 10 0 14 -4 3 -7 0 -7 -7z"/>
<path d="M2470 674 c0 -8 5 -12 10 -9 6 4 8 11 5 16 -9 14 -15 11 -15 -7z"/>
<path d="M1890 220 c0 -7 3 -10 7 -7 3 4 3 10 0 14 -4 3 -7 0 -7 -7z"/>
<path d="M2668 204 c-3 -5 -1 -23 4 -41 8 -29 11 -32 38 -27 23 5 34 1 54 -21&#xA;19 -20 26 -23 26 -12 0 23 -28 47 -62 54 -17 3 -34 16 -42 31 -7 14 -15 21&#xA;-18 16z"/>
<path d="M227 144 c-4 -4 -7 -14 -7 -23 0 -11 3 -12 11 -4 6 6 10 16 7 23 -2&#xA;6 -7 8 -11 4z"/>
<path d="M1371 140 c0 -8 4 -22 9 -30 12 -18 12 -2 0 25 -6 13 -9 15 -9 5z"/>
<path d="M1531 74 c0 -11 3 -14 6 -6 3 7 2 16 -1 19 -3 4 -6 -2 -5 -13z"/>
<path d="M1870 50 c0 -7 3 -10 7 -7 3 4 3 10 0 14 -4 3 -7 0 -7 -7z"/>
</g>
</svg>