<?xml version="1.0" standalone="no"?>
<!DOCTYPE svg PUBLIC "-//W3C//DTD SVG 20010904//EN"
 "http://www.w3.org/TR/2001/REC-SVG-20010904/DTD/svg10.dtd">
<svg version="1.0" xmlns="http://www.w3.org/2000/svg"
 width="300.000000pt" height="110.000000pt" viewBox="0 0 300.000000 110.000000"
 preserveAspectRatio="xMidYMid meet">
<metadata>
Created by potrace 1.10, written by Peter Selinger 2001-2011
</metadata>
<g transform="translate(0.000000,110.000000) scale(0.100000,-0.100000)"
fill="#000000" stroke="none">
<path d="M2826 988 c-24 -46 -68 -131 -96 -189 -50 -104 -51 -107 -37 -141 8
-19 28 -50 46 -70 l31 -35 -39 -87 c-21 -48 -47 -93 -57 -101 -17 -12 -19 -29
-21 -140 -1 -92 2 -125 10 -122 7 2 13 19 15 38 2 20 12 41 24 50 13 10 22 32
25 62 3 26 9 44 14 41 4 -2 5 -12 2 -21 -5 -12 -2 -15 10 -10 13 5 15 0 10
-28 -8 -47 2 -71 22 -55 17 14 20 66 5 75 -12 8 -13 105 -1 105 5 0 14 15 20
32 7 18 23 50 37 71 22 34 24 44 19 113 -6 89 -10 98 -40 90 -28 -7 -55 16
-55 46 0 22 30 78 41 78 4 0 11 -9 14 -21 10 -31 20 -12 20 39 0 48 0 48 74
82 8 3 19 14 25 24 9 13 7 20 -6 30 -23 17 -22 21 3 55 25 34 17 55 -16 47
-15 -4 -25 -1 -29 9 -11 29 -25 15 -70 -67z"/>
<path d="M2450 1000 c0 -11 4 -20 8 -20 5 0 14 -11 20 -25 9 -20 8 -26 -4 -33
-13 -7 -12 -12 3 -43 13 -24 18 -57 18 -116 0 -76 -2 -83 -27 -107 -16 -14
-28 -36 -28 -48 0 -13 -22 -75 -50 -137 -49 -111 -60 -151 -40 -151 6 0 10 -7
10 -15 0 -8 5 -15 10 -15 6 0 10 12 10 26 0 42 50 146 65 134 8 -6 15 -6 23 2
13 13 13 13 17 -57 5 -102 20 -201 32 -213 7 -7 14 -24 14 -38 1 -13 3 -28 4
-34 1 -5 3 -24 4 -41 1 -26 3 -28 15 -17 9 10 14 46 15 118 1 58 3 141 4 185
1 59 -3 89 -15 115 -10 19 -24 54 -32 76 -14 41 -14 42 16 73 30 30 53 36 29
7 -15 -18 -4 -66 15 -66 10 0 14 16 14 63 1 53 5 68 30 101 17 22 30 46 30 54
0 9 7 23 15 32 8 9 18 30 21 47 5 26 2 34 -25 54 -17 12 -31 28 -31 35 0 17
-27 25 -57 18 -17 -5 -34 0 -54 16 -17 12 -37 19 -45 16 -8 -3 -14 1 -14 9 0
8 -4 15 -10 15 -5 0 -10 -9 -10 -20z m155 -180 c7 -11 -4 -31 -42 -77 -18 -23
-18 -22 -18 35 0 31 4 60 9 64 11 7 41 -6 51 -22z m-98 -452 c-3 -7 -5 -2 -5
12 0 14 2 19 5 13 2 -7 2 -19 0 -25z"/>
<path d="M1469 994 c-10 -13 -10 -20 5 -45 16 -28 17 -42 7 -164 -14 -164 -48
-302 -102 -414 -37 -76 -40 -86 -25 -96 11 -8 16 -27 16 -59 0 -34 4 -46 13
-43 7 2 12 23 12 53 0 27 3 52 7 55 5 3 17 30 27 60 l20 54 0 -38 c1 -25 5
-36 12 -31 8 4 9 26 5 65 -5 45 -3 66 10 91 16 30 18 31 25 13 6 -15 8 -10 8
19 1 22 3 37 6 35 16 -16 70 -323 77 -439 4 -56 22 -54 25 3 2 36 7 80 13 122
1 6 5 1 10 -10 7 -15 9 -9 9 26 1 26 -6 63 -15 84 -8 20 -19 71 -24 112 -5 48
-17 93 -34 125 -15 28 -25 51 -24 52 2 1 29 15 61 30 41 20 57 34 59 50 3 46
-4 82 -23 114 -10 18 -19 40 -19 48 0 14 -126 144 -140 144 -4 0 -13 -7 -21
-16z m152 -212 c11 -23 19 -49 15 -57 -5 -14 -76 -55 -96 -55 -14 0 -13 109 1
166 l12 46 23 -29 c13 -15 33 -47 45 -71z"/>
<path d="M363 972 c-10 -15 -34 -47 -54 -72 -46 -57 -61 -87 -89 -178 -13 -41
-37 -93 -56 -118 -35 -46 -44 -84 -20 -84 7 0 21 -12 31 -26 14 -22 17 -50 16
-175 -1 -96 2 -149 9 -149 9 0 17 129 12 225 l-2 40 21 -40 c12 -22 28 -48 36
-57 9 -10 12 -25 8 -37 -3 -11 -2 -29 4 -38 9 -16 11 -16 21 7 9 21 10 16 6
-30 -2 -31 0 -64 6 -74 5 -9 11 -32 12 -49 5 -56 6 -58 16 -52 5 3 10 29 10
56 0 67 28 200 46 219 12 12 14 10 14 -20 0 -26 3 -31 12 -22 6 6 10 33 9 59
-2 66 24 113 62 113 50 0 69 17 62 53 -4 18 -18 43 -31 58 -13 14 -24 35 -24
47 0 12 -6 22 -12 22 -7 0 -25 14 -39 32 l-26 32 -37 -18 c-47 -22 -47 -50 -1
-100 19 -21 35 -40 35 -42 0 -2 -19 -32 -42 -66 l-42 -61 -15 24 c-9 13 -31
40 -48 60 -18 20 -33 43 -33 50 1 20 34 92 51 109 18 18 99 158 99 171 0 19
20 8 44 -24 15 -19 26 -44 26 -56 0 -12 4 -19 10 -16 6 4 10 -8 10 -29 0 -26
7 -40 29 -59 39 -32 71 -85 71 -117 0 -14 9 -59 20 -100 12 -48 17 -89 13
-117 -5 -36 -3 -43 11 -43 9 0 16 8 16 18 0 10 5 23 11 29 5 5 14 46 18 89 8
78 26 127 77 204 23 34 24 80 3 80 -5 0 -9 11 -9 25 0 14 -4 25 -9 25 -13 0
-37 66 -50 133 -13 72 -37 119 -58 115 -21 -4 -37 -59 -20 -70 9 -6 9 -10 1
-15 -6 -5 -20 -29 -32 -55 -11 -26 -25 -53 -31 -60 -6 -7 -20 -24 -32 -38
l-21 -25 7 25 c12 46 5 83 -33 153 -44 84 -73 101 -99 59z m303 -262 c16 -73
16 -83 1 -117 -8 -21 -18 -47 -22 -58 -7 -18 -8 -17 -17 10 -6 17 -24 61 -41
98 l-30 68 17 57 c10 31 25 65 34 75 15 17 17 16 29 -18 7 -19 20 -71 29 -115z"/>
<path d="M2030 969 c-8 -15 -8 -34 -1 -70 15 -70 14 -168 -4 -236 -8 -31 -15
-75 -15 -98 0 -22 -11 -83 -25 -135 -14 -52 -25 -104 -25 -116 0 -24 22 -74
33 -74 4 0 8 -19 8 -42 l1 -43 8 40 c5 22 7 47 4 56 -2 9 4 27 15 40 11 13 20
18 21 12 0 -28 20 -11 20 18 0 18 13 49 33 77 17 26 37 58 44 72 6 14 12 18
12 10 1 -21 25 16 41 63 8 25 17 37 25 33 8 -3 19 1 25 9 14 17 3 82 -16 89
-9 3 -14 21 -14 50 0 25 -4 47 -10 51 -11 7 -109 149 -129 188 -17 32 -36 35
-51 6z m86 -196 c3 -16 10 -41 15 -58 8 -29 9 -29 5 -2 -4 35 0 34 19 -3 26
-51 15 -120 -31 -186 -21 -31 -47 -70 -58 -86 -10 -16 -20 -28 -22 -26 -1 2 6
33 16 70 10 37 22 123 26 192 6 122 17 156 30 99z"/>
<path d="M756 972 c-11 -19 4 -38 74 -93 39 -30 70 -58 69 -64 0 -5 -15 -38
-32 -73 l-33 -63 -12 94 c-15 120 -18 127 -53 127 -16 0 -29 -2 -29 -5 0 -3
11 -44 25 -91 14 -47 25 -105 25 -128 -1 -66 -35 -204 -79 -315 -32 -80 -39
-107 -30 -117 6 -8 18 -14 25 -14 10 0 14 -13 14 -40 0 -22 5 -40 10 -40 6 0
10 19 10 42 0 23 5 69 11 103 8 48 14 62 27 61 14 -1 17 10 18 62 0 58 18 105
27 71 2 -8 9 -29 15 -48 8 -23 8 -40 1 -52 -7 -15 -6 -21 5 -25 21 -8 38 -76
38 -151 0 -35 4 -60 9 -57 5 3 9 20 9 37 0 21 8 39 21 50 22 20 20 56 -7 109
-8 15 -21 55 -30 90 -29 118 -32 130 -38 135 -8 8 29 75 53 97 48 43 86 140
74 187 -3 11 -21 26 -39 34 -19 8 -51 28 -72 44 -40 33 -95 50 -106 33z"/>
<path d="M1705 973 c-41 -11 -63 -73 -25 -73 32 0 34 -42 10 -179 -32 -180
-40 -292 -23 -312 18 -22 50 -13 57 15 6 24 -3 68 -16 77 -5 3 -2 37 6 75 33
162 49 291 42 347 -7 57 -10 60 -51 50z"/>
<path d="M1047 926 c-4 -25 -24 -84 -46 -133 -21 -48 -42 -98 -46 -111 -4 -13
-22 -38 -41 -57 -31 -31 -34 -39 -28 -74 4 -27 12 -41 26 -44 14 -4 18 -2 14
9 -3 8 -1 14 3 14 11 0 21 -25 21 -50 0 -10 7 -20 15 -24 8 -3 15 -16 15 -30
0 -32 10 -57 21 -51 8 6 31 -29 27 -42 -1 -4 3 -18 10 -31 7 -12 10 -31 7 -41
-3 -12 0 -21 10 -25 8 -3 15 -13 15 -21 0 -9 -4 -13 -10 -10 -6 4 -10 -8 -10
-29 0 -70 38 -53 43 19 2 28 7 58 12 68 4 10 1 27 -9 42 -9 13 -16 32 -16 42
0 10 -12 38 -25 63 -65 119 -62 108 -32 133 14 12 49 38 76 57 76 53 92 100
35 100 -16 0 -44 -17 -76 -47 -28 -27 -49 -40 -45 -31 3 9 2 18 -3 20 -12 4
34 116 53 131 8 7 22 43 31 80 17 68 17 69 -6 93 -13 13 -26 24 -29 24 -4 0
-9 -20 -12 -44z"/>
<path d="M1306 910 c-20 -22 -36 -47 -36 -55 0 -8 -43 -94 -95 -191 -52 -98
-95 -183 -95 -189 0 -7 11 -16 24 -19 17 -4 25 -15 30 -41 4 -19 4 -39 1 -44
-8 -14 6 -41 22 -41 11 0 13 7 8 30 -4 17 -3 30 2 30 19 0 33 -26 33 -62 0
-21 4 -38 9 -38 17 0 22 19 11 41 -19 34 -6 31 34 -7 34 -33 37 -40 31 -75 -6
-32 -4 -39 10 -39 13 0 16 10 14 53 -2 43 7 72 50 172 28 66 60 132 71 147 20
27 27 58 12 58 -4 0 -17 -6 -28 -14 -18 -13 -24 -12 -50 5 -53 34 -65 27 -107
-64 -36 -80 -45 -117 -29 -117 15 0 51 45 63 78 10 29 15 32 50 32 l38 0 -14
-27 c-8 -16 -28 -58 -44 -95 -31 -71 -43 -81 -61 -48 -6 11 -16 20 -23 20 -8
0 -26 13 -41 29 l-28 30 31 92 c37 107 49 132 60 124 5 -2 8 3 7 13 0 9 5 16
11 15 7 -2 23 15 35 37 13 22 26 40 29 40 12 0 20 -35 10 -38 -16 -5 -13 -24
10 -51 18 -23 21 -23 36 -8 12 12 17 36 17 86 1 57 -3 75 -21 100 -13 16 -23
39 -23 51 0 31 -24 24 -64 -20z"/>
<path d="M2227 926 c-3 -8 0 -22 8 -33 11 -15 11 -21 -2 -35 -18 -21 -8 -42
18 -35 26 7 28 1 30 -94 2 -71 -3 -98 -30 -178 -17 -52 -42 -105 -55 -118 -31
-30 -41 -117 -20 -175 8 -22 14 -49 14 -60 0 -10 5 -16 10 -13 6 3 10 21 10
40 0 72 40 49 41 -23 1 -30 7 -56 15 -63 19 -16 28 10 14 45 -5 15 -10 37 -10
48 0 20 1 20 18 5 41 -37 64 -3 28 40 -12 16 -34 45 -48 66 -31 45 -28 64 24
157 28 51 37 60 60 60 30 0 73 34 63 50 -4 6 -21 10 -39 10 l-33 0 -2 94 -1
93 39 -1 c48 -1 71 17 71 59 0 42 -8 48 -36 26 -42 -33 -154 -7 -154 36 0 17
-26 17 -33 -1z"/>
<path d="M1916 915 c-3 -9 0 -26 6 -38 21 -36 15 -227 -10 -337 -12 -52 -23
-106 -25 -120 -2 -14 -3 36 -3 110 0 74 -5 167 -12 205 -14 77 -49 150 -72
150 -17 0 -25 -75 -34 -302 -6 -148 -16 -197 -48 -238 -18 -24 -20 -32 -10
-57 6 -16 8 -36 5 -44 -3 -8 0 -14 6 -14 6 0 11 11 11 25 0 14 16 54 35 89 41
75 54 149 56 316 1 92 3 109 11 85 5 -16 12 -131 14 -255 4 -225 12 -277 41
-266 9 4 13 -5 13 -30 0 -19 4 -33 8 -30 5 3 9 47 9 98 1 70 9 123 32 213 18
66 37 166 43 222 12 100 11 103 -14 165 -26 63 -50 84 -62 53z"/>
<path d="M901 420 c0 -8 4 -22 9 -30 12 -18 12 -2 0 25 -6 13 -9 15 -9 5z"/>
</g>
</svg>
