<?xml version="1.0" standalone="no"?>
<!DOCTYPE svg PUBLIC "-//W3C//DTD SVG 20010904//EN"
 "http://www.w3.org/TR/2001/REC-SVG-20010904/DTD/svg10.dtd">
<svg version="1.0" xmlns="http://www.w3.org/2000/svg"
 width="300.000000pt" height="155.000000pt" viewBox="0 0 300.000000 155.000000"
 preserveAspectRatio="xMidYMid meet">
<metadata>
Created by potrace 1.10, written by Peter Selinger 2001-2011
</metadata>
<g transform="translate(0.000000,155.000000) scale(0.100000,-0.100000)"
fill="#000000" stroke="none">
<path d="M305 1468 c-3 -8 -1 -27 5 -42 15 -42 12 -55 -16 -68 -16 -7 -27 -23
-31 -41 -6 -32 -28 -46 -46 -28 -21 21 -30 11 -24 -26 8 -44 -5 -63 -44 -63
-36 0 -46 -16 -18 -30 26 -14 45 -59 54 -127 7 -55 36 -103 61 -103 23 0 28
29 10 49 -12 14 -16 33 -14 67 l3 49 21 -36 c21 -35 22 -35 78 -31 l56 4 0
-77 0 -77 -30 6 c-17 3 -39 2 -48 -3 -9 -5 -25 -12 -34 -15 -49 -15 3 -77 75
-90 29 -5 37 -11 33 -22 -3 -9 -6 -34 -6 -57 0 -40 -2 -43 -40 -60 -59 -25
-53 -66 12 -82 29 -7 29 -6 42 -207 l6 -78 -49 0 c-34 0 -51 -5 -55 -15 -3 -8
-12 -15 -19 -15 -10 0 -16 19 -20 65 -7 76 -20 105 -47 105 -28 0 -33 -15 -34
-110 -1 -69 -5 -92 -18 -107 -50 -55 22 -97 99 -59 40 20 178 39 200 28 24
-12 94 -24 167 -27 32 -2 63 -8 69 -14 16 -16 44 -13 51 5 3 9 6 69 6 134 0
127 -9 154 -50 143 -12 -3 -22 1 -26 11 -3 9 -13 16 -21 16 -11 0 -13 -6 -8
-22 17 -56 17 -68 -4 -94 -14 -18 -21 -41 -21 -72 0 -38 -2 -43 -15 -32 -8 7
-15 19 -15 26 0 8 -19 19 -45 25 -43 11 -45 13 -45 48 0 20 -3 79 -6 131 l-6
95 34 15 c18 8 34 23 36 32 5 24 -27 68 -48 68 -14 0 -20 11 -25 52 -4 29 -4
54 1 56 57 22 79 39 79 62 0 20 -7 26 -45 35 l-45 11 -3 77 -3 77 51 0 c62 0
86 11 94 45 7 28 23 29 40 3 7 -12 6 -24 -3 -41 -16 -30 -4 -75 23 -91 24 -15
46 16 46 68 1 37 5 64 26 149 5 21 3 27 -10 27 -17 0 -26 29 -23 70 2 22 -1
25 -27 22 -60 -7 -74 4 -87 63 -7 30 -16 55 -20 55 -16 0 -29 -40 -29 -89 0
-38 6 -56 24 -78 19 -22 22 -32 14 -54 -12 -34 -21 -38 -94 -35 -32 2 -94 4
-136 4 -66 2 -78 5 -78 19 0 14 41 110 71 165 20 38 2 106 -35 137 -13 11 -17
11 -21 -1z"/>
<path d="M2496 1308 c-8 -13 -20 -36 -27 -51 -10 -22 -18 -27 -34 -23 -31 8
-35 -1 -19 -40 13 -31 13 -35 -6 -46 -23 -15 -27 -38 -5 -38 20 0 35 -32 35
-74 0 -41 29 -66 49 -42 7 8 21 12 31 9 13 -3 22 1 27 13 10 27 42 56 55 48 7
-4 9 -30 5 -73 -3 -36 1 -93 7 -126 l13 -60 -29 -12 c-37 -16 -36 -54 2 -63
23 -5 25 -10 28 -78 2 -57 0 -72 -11 -72 -24 0 -35 -23 -30 -59 4 -21 12 -35
23 -38 15 -4 18 -21 22 -111 3 -59 4 -108 3 -110 -2 -2 -17 17 -35 42 -17 25
-37 46 -44 46 -29 0 -36 -25 -27 -91 5 -35 7 -65 6 -67 -4 -4 -75 61 -75 69 0
9 -122 219 -151 261 -27 39 -80 102 -115 139 l-25 25 28 13 c15 7 72 42 126
77 66 44 97 70 97 83 0 30 -26 73 -64 106 -19 17 -57 58 -85 92 -35 42 -74 76
-123 105 -40 23 -89 55 -109 70 -57 46 -96 13 -46 -40 12 -13 23 -38 24 -55 1
-18 6 -77 12 -132 14 -140 14 -291 -1 -315 -9 -15 -8 -54 5 -186 10 -92 21
-172 26 -178 5 -6 11 -26 13 -43 4 -27 -1 -38 -29 -65 -40 -38 -42 -65 -7 -78
33 -13 111 -13 119 0 3 5 17 10 29 10 28 0 51 24 43 44 -3 8 -24 24 -46 35
-45 23 -44 21 -61 251 -12 164 -12 150 1 150 5 0 7 -5 4 -11 -10 -16 39 -108
88 -164 24 -27 69 -85 100 -127 50 -68 54 -78 38 -83 -31 -9 -34 -36 -9 -61
13 -13 29 -30 36 -39 9 -10 31 -15 72 -15 73 0 90 6 90 34 0 21 1 21 19 -3 16
-20 23 -23 52 -17 19 5 87 10 152 12 75 2 124 8 134 16 12 9 14 30 11 95 -4
95 -18 117 -80 126 -48 7 -56 -6 -24 -38 21 -21 26 -36 26 -74 l0 -47 -47 0
c-48 1 -48 1 -55 41 -3 22 -7 81 -7 132 l-1 92 48 3 c43 3 47 5 47 28 0 21 -6
26 -41 34 -39 8 -42 11 -47 49 -7 51 2 99 20 110 17 10 17 67 -1 92 -8 11 -16
43 -20 70 -3 28 -8 72 -12 99 l-6 49 33 -19 c19 -11 36 -29 38 -40 8 -47 37
-55 82 -23 25 18 29 27 29 71 0 39 5 54 22 67 24 20 17 41 -13 41 -23 0 -23 3
-5 39 17 31 7 55 -20 49 -11 -2 -34 14 -62 44 -43 46 -82 63 -82 36 0 -7 10
-32 22 -56 19 -35 21 -44 9 -51 -22 -14 -229 -10 -241 4 -7 8 -2 28 15 61 14
27 23 55 20 62 -7 20 -43 14 -59 -10z m53 -224 c-6 -7 -15 -11 -21 -8 -5 3 -4
12 3 20 6 7 15 11 21 8 5 -3 4 -12 -3 -20z m228 -8 c-6 -17 -31 -13 -35 6 -2
12 2 15 18 11 11 -3 19 -11 17 -17z m-579 -79 c45 -38 82 -75 82 -81 0 -22
-61 -95 -109 -131 -27 -19 -51 -35 -54 -35 -5 0 -11 66 -22 238 -7 108 -15
108 103 9z"/>
<path d="M1475 1221 c-7 -24 7 -47 34 -56 16 -5 29 -34 52 -120 33 -125 39
-164 38 -257 l0 -103 -18 65 c-24 84 -69 172 -122 235 -49 59 -55 73 -64 149
-9 71 -45 113 -61 71 -4 -9 -13 -13 -24 -10 -31 10 -50 -5 -49 -39 1 -60 -23
-212 -49 -306 -20 -74 -32 -101 -55 -120 -35 -31 -33 -59 6 -78 47 -23 60 -55
121 -306 22 -90 23 -102 9 -122 -33 -52 1 -72 124 -73 43 -1 53 2 58 19 9 28
-3 58 -25 65 -42 13 -28 68 30 122 37 34 90 176 90 239 0 23 6 47 13 53 12 9
15 -19 20 -163 8 -200 4 -234 -27 -238 -28 -4 -35 -47 -10 -65 26 -19 168 -18
184 2 18 21 4 64 -23 70 -22 6 -22 9 -24 188 -1 169 0 180 14 152 8 -16 41
-73 73 -125 32 -52 65 -118 73 -147 15 -49 15 -51 -5 -56 -14 -4 -19 -12 -16
-28 3 -27 30 -37 100 -38 66 -1 69 17 19 125 -23 48 -41 94 -41 102 0 9 -30
77 -67 151 -37 75 -69 139 -71 143 -2 3 15 4 38 1 39 -5 43 -3 85 43 101 110
100 175 -6 285 -45 46 -68 61 -133 85 -64 23 -80 34 -88 56 -12 33 -20 36
-117 44 -75 6 -79 6 -86 -15z m317 -196 c122 -50 149 -111 86 -193 -18 -23
-41 -42 -51 -42 -11 0 -46 15 -78 32 l-59 33 0 77 c0 46 -4 80 -11 84 -8 4 -3
12 12 20 32 18 30 18 101 -11z m-382 -171 l39 -101 -13 -74 c-15 -78 -26 -113
-59 -191 l-20 -47 -24 67 c-58 160 -58 155 -13 342 11 47 23 96 26 109 7 33
14 22 64 -105z"/>
<path d="M1025 1220 c-3 -5 -35 -24 -71 -41 -110 -54 -156 -128 -190 -302 -9
-45 -18 -135 -21 -199 -5 -114 -5 -117 20 -142 18 -17 23 -32 20 -50 -8 -39
36 -118 122 -223 107 -131 150 -136 215 -28 35 59 35 60 35 177 0 105 2 117
16 113 16 -5 49 18 49 34 0 12 -23 31 -40 31 -8 0 -31 8 -50 19 -30 16 -44 17
-94 10 -127 -20 -162 -82 -51 -91 37 -3 42 -7 64 -53 30 -63 37 -113 21 -159
-10 -32 -16 -36 -44 -36 -28 0 -40 8 -80 59 -26 34 -44 66 -40 74 3 8 -11 43
-30 79 -41 75 -46 134 -22 260 19 94 129 301 159 296 17 -3 19 -16 20 -168 2
-164 2 -165 25 -168 17 -3 25 2 29 16 2 11 16 25 29 33 26 13 40 49 30 74 -3
8 -1 27 5 42 5 15 6 29 1 32 -5 3 -12 34 -15 67 -6 58 -5 64 23 99 21 27 28
44 25 67 -5 38 -7 40 -78 66 -66 25 -73 26 -82 12z"/>
</g>
</svg>
