<?xml version="1.0" standalone="no"?>
<!DOCTYPE svg PUBLIC "-//W3C//DTD SVG 20010904//EN"
 "http://www.w3.org/TR/2001/REC-SVG-20010904/DTD/svg10.dtd">
<svg version="1.0" xmlns="http://www.w3.org/2000/svg"
 width="300.000000pt" height="161.000000pt" viewBox="0 0 300.000000 161.000000"
 preserveAspectRatio="xMidYMid meet">
<metadata>
Created by potrace 1.10, written by Peter Selinger 2001-2011
</metadata>
<g transform="translate(0.000000,161.000000) scale(0.100000,-0.100000)"
fill="#000000" stroke="none">
<path d="M1761 1375 c-1 -92 2 -117 19 -150 11 -22 20 -51 20 -65 0 -14 5 -31
11 -37 18 -18 15 -138 -4 -166 -16 -24 -53 -44 -63 -34 -3 2 -5 26 -5 53 -1
69 -24 172 -65 297 -20 59 -36 129 -37 155 l0 47 -14 -30 c-16 -37 -8 -109 19
-184 16 -41 19 -68 15 -114 -4 -44 -1 -66 9 -82 11 -16 14 -45 12 -101 -3 -73
-5 -79 -25 -82 -25 -4 -32 -32 -8 -32 24 0 18 -45 -15 -113 -55 -114 -58 -186
-14 -303 15 -38 15 -38 10 46 -5 78 -3 89 19 129 19 32 23 47 14 57 -18 22 27
128 79 186 41 44 47 48 58 33 9 -12 9 -26 2 -52 -5 -19 -8 -64 -6 -99 3 -61 2
-64 -19 -64 -30 0 -31 -33 -1 -52 19 -13 22 -23 19 -66 -2 -45 1 -54 28 -83
25 -26 31 -40 31 -77 0 -25 3 -43 6 -39 12 12 5 100 -10 116 -25 28 -30 87
-11 127 15 33 15 38 1 69 -24 50 -19 117 14 217 27 79 30 102 28 189 -1 75 -5
103 -17 112 -12 10 -14 9 -8 -6 5 -13 3 -17 -5 -15 -12 4 -30 71 -72 258 l-14
65 -1 -110z"/>
<path d="M2855 1433 c-12 -73 -46 -142 -89 -181 -39 -36 -49 -40 -117 -46 -94
-9 -180 4 -299 43 -112 38 -148 58 -214 120 l-49 46 30 -45 c17 -25 49 -60 72
-78 23 -19 53 -52 67 -75 33 -52 62 -76 93 -77 24 0 24 0 5 15 -28 21 -7 18
30 -4 17 -11 42 -35 56 -53 22 -29 25 -46 28 -136 4 -99 2 -112 -54 -333 -32
-126 -62 -229 -66 -229 -4 0 -14 16 -23 36 -17 42 -36 37 -29 -9 3 -17 -2 -52
-10 -76 -9 -24 -16 -64 -16 -88 0 -53 24 -142 46 -169 15 -19 15 -19 9 1 -12
33 -14 127 -4 179 9 48 24 70 41 60 4 -3 8 1 8 8 0 7 6 4 12 -7 6 -11 23 -33
38 -50 15 -16 30 -37 33 -45 3 -9 6 -5 6 11 1 14 -6 34 -14 45 -20 27 -19 34
17 113 29 64 36 72 89 101 78 41 123 107 101 146 -8 14 -10 12 -16 -11 -8 -32
-51 -74 -123 -121 -29 -19 -61 -49 -70 -67 l-18 -32 -3 38 c-2 20 9 76 23 125
28 89 37 138 55 297 14 120 27 166 44 159 8 -3 22 6 33 21 10 15 31 41 46 58
l28 32 -3 -29 c-2 -17 2 -31 10 -33 6 -3 12 -1 12 4 0 5 28 39 63 76 73 77
125 172 134 246 7 59 -3 70 -12 14z m-295 -288 c0 -3 -12 -24 -27 -47 l-28
-42 -3 33 c-4 37 12 61 39 61 11 0 19 -2 19 -5z"/>
<path d="M711 1414 c-12 -15 -21 -30 -21 -35 0 -4 -4 -19 -10 -34 l-10 -25
-21 21 c-31 31 -35 15 -9 -34 23 -44 23 -45 7 -112 -15 -61 -62 -155 -78 -155
-3 0 -11 10 -16 23 l-11 22 -9 -23 c-9 -23 -11 -21 -46 30 -37 54 -59 83 -110
151 -16 22 -45 68 -63 104 -31 59 -34 62 -34 33 0 -20 22 -72 61 -140 33 -60
60 -111 59 -112 -1 -2 5 -21 14 -43 9 -22 23 -74 31 -115 22 -113 8 -348 -25
-435 l-11 -30 -20 25 c-11 14 -23 39 -26 55 l-7 30 -6 -35 c-7 -40 1 -59 44
-114 30 -37 31 -42 36 -165 4 -96 10 -135 25 -163 10 -21 23 -38 28 -38 6 0 5
5 -1 13 -9 12 -17 47 -28 132 l-5 40 39 -60 c23 -36 41 -78 45 -104 3 -24 12
-50 19 -58 12 -12 13 -5 8 45 -9 69 -37 136 -74 176 -18 18 -25 34 -20 45 16
40 50 228 42 236 -3 3 -11 -15 -17 -40 -14 -57 -32 -60 -19 -3 5 24 10 147 11
274 1 229 2 231 20 207 12 -15 23 -51 28 -91 4 -37 17 -103 28 -147 12 -44 21
-88 21 -97 0 -9 5 -20 12 -24 6 -4 8 -3 5 2 -6 11 -20 216 -19 282 1 26 9 54
22 71 11 16 20 35 20 43 0 7 6 22 14 33 7 11 16 29 18 40 9 40 20 -97 14 -177
-3 -46 -9 -117 -12 -159 -5 -61 -3 -83 11 -110 10 -18 26 -56 36 -83 l19 -51
-5 45 c-3 25 -8 61 -12 80 -7 45 -6 43 57 -70 88 -158 87 -157 94 -270 3 -58
10 -121 15 -140 11 -42 10 -43 16 46 5 78 17 119 44 149 10 11 21 35 23 54 5
31 4 32 -9 16 -7 -11 -13 -22 -13 -26 0 -3 -11 -6 -23 -6 -18 0 -27 8 -35 31
-6 17 -33 69 -60 116 -27 47 -61 118 -77 159 -25 67 -27 81 -21 160 3 47 8
104 11 127 4 26 -1 63 -14 103 -18 58 -19 70 -7 150 7 48 21 101 30 118 30 60
15 85 -23 37z"/>
<path d="M1447 1385 c-4 -43 -2 -68 10 -92 21 -46 10 -108 -34 -191 -32 -61
-36 -76 -40 -167 -4 -84 -2 -109 16 -160 12 -35 21 -84 21 -120 0 -34 4 -65 9
-70 5 -6 11 -23 14 -40 2 -16 5 14 6 68 1 75 4 97 14 93 6 -3 20 -9 30 -12 9
-4 17 -15 17 -25 0 -10 5 -21 10 -24 6 -3 10 4 10 16 0 12 14 37 31 57 30 34
31 39 26 98 -6 59 -4 64 23 93 35 36 35 36 10 81 l-19 35 -1 -35 c0 -19 -4
-41 -9 -49 -12 -19 -56 -7 -87 24 -22 23 -23 25 -9 59 9 21 11 36 5 36 -5 0
-17 -17 -25 -37 -24 -56 -13 -98 34 -129 41 -27 51 -47 51 -105 0 -59 -57 -92
-92 -51 -16 17 -34 64 -47 117 -11 45 5 168 28 213 26 52 94 106 121 97 11 -3
20 -13 20 -21 0 -14 12 -19 23 -8 8 9 -21 64 -34 64 -5 0 -21 12 -34 26 -23
25 -25 25 -31 8 -16 -50 -24 -58 -19 -19 3 22 0 56 -6 75 -6 19 -17 62 -23 95
l-12 60 -7 -60z"/>
<path d="M1215 1335 c-6 -79 -11 -101 -28 -118 -14 -14 -17 -22 -9 -25 30 -10
42 -35 42 -88 0 -30 -4 -63 -10 -74 -5 -11 -14 -29 -19 -39 -8 -15 -6 -20 8
-24 16 -4 18 -10 10 -48 -11 -61 -11 -159 1 -159 6 0 10 7 10 16 0 29 19 52
38 47 15 -3 21 -22 31 -92 7 -48 19 -110 27 -137 l14 -49 -5 55 c-18 215 -18
235 -2 248 11 9 14 24 11 50 -6 48 -10 50 -29 12 -12 -24 -48 -50 -68 -50 -1
0 0 21 2 48 3 37 10 54 37 80 18 17 42 32 54 32 11 0 20 5 20 10 0 20 2 25 13
40 10 12 8 12 -13 -1 -14 -9 -37 -19 -51 -22 -25 -6 -27 -4 -31 32 -5 54 -3
58 36 53 49 -6 70 10 94 70 l22 53 -21 -28 c-12 -15 -34 -34 -50 -42 -70 -37
-99 -6 -99 106 0 42 -6 91 -14 109 -13 32 -14 30 -21 -65z"/>
<path d="M985 1376 c-12 -81 12 -181 75 -311 l42 -85 -7 -171 c-7 -156 -9
-172 -26 -176 -21 -6 -25 -18 -9 -28 6 -3 10 -23 10 -43 0 -20 5 -44 10 -52 9
-13 12 -13 24 3 17 23 24 12 33 -50 3 -26 9 -50 12 -53 4 -3 11 -16 17 -29 7
-18 9 2 6 75 -2 54 -8 106 -12 114 -10 17 17 72 56 119 51 61 0 48 -54 -13
l-30 -35 -6 67 c-4 38 -2 82 4 102 5 19 10 74 10 121 0 80 -3 92 -35 155 -25
49 -40 96 -50 158 -8 49 -19 92 -24 96 -6 3 -12 21 -14 40 -4 51 -24 49 -32
-4z"/>
<path d="M1932 1398 c-7 -7 -12 -19 -12 -27 0 -9 -7 -29 -15 -44 -12 -24 -13
-33 -1 -55 26 -52 38 -128 37 -237 0 -95 -5 -123 -31 -203 -32 -99 -36 -127
-20 -137 6 -3 10 -27 10 -52 0 -32 11 -68 36 -122 21 -41 40 -87 45 -101 7
-23 7 -22 8 10 1 20 -6 46 -15 58 -8 13 -18 39 -20 59 -3 20 -10 43 -16 50
-12 15 -6 114 10 154 14 35 61 89 78 89 8 0 14 5 14 10 0 6 14 10 30 10 29 0
30 -2 30 -46 0 -67 -24 -112 -63 -116 -35 -3 -47 -23 -19 -32 25 -8 42 -47 42
-97 0 -25 8 -52 20 -69 11 -15 24 -38 30 -51 8 -19 8 -16 4 16 -4 22 -11 48
-15 57 -5 9 -9 38 -9 65 0 39 7 59 35 102 40 60 40 61 20 61 -19 0 -20 36 -1
43 12 5 14 25 10 102 -4 99 -20 154 -55 191 -14 15 -23 43 -28 90 l-8 69 -2
-59 c-1 -53 -2 -57 -18 -45 -9 8 -36 41 -61 74 -43 58 -44 61 -37 114 4 30 9
60 12 68 6 16 -9 17 -25 1z m156 -381 c12 -24 22 -59 22 -83 l0 -41 -56 -7
c-31 -4 -59 -5 -61 -3 -2 3 1 33 7 68 5 35 10 83 10 107 l0 43 28 -21 c15 -12
37 -40 50 -63z"/>
<path d="M786 1288 c-7 -58 -4 -73 29 -143 35 -72 42 -147 26 -269 -7 -47 -13
-123 -15 -168 -2 -72 0 -88 21 -124 13 -23 33 -50 45 -60 21 -19 21 -19 14 1
-40 102 -47 136 -48 222 -1 62 3 97 12 108 17 21 63 19 91 -4 23 -19 24 -24
24 -173 l0 -155 38 -74 c20 -41 37 -79 37 -85 0 -12 42 -54 55 -54 4 0 0 9 -9
19 -10 11 -23 52 -30 93 -7 40 -15 67 -17 59 -10 -29 -28 1 -44 73 -9 42 -14
88 -10 107 23 118 12 321 -19 359 -7 8 -25 36 -39 62 -15 25 -53 69 -84 98
-56 49 -58 53 -58 100 0 61 -12 66 -19 8z m137 -240 c19 -29 38 -71 41 -94 l6
-41 -43 10 -43 9 0 84 c1 46 2 84 2 84 1 0 17 -24 37 -52z"/>
<path d="M2212 1088 c-11 -15 -52 -95 -52 -103 0 -3 7 -5 15 -5 11 0 15 -11
15 -39 0 -59 15 -91 43 -91 56 0 93 -96 45 -117 -18 -8 -29 -6 -51 10 -22 17
-30 18 -40 8 -9 -10 -8 -14 6 -22 21 -12 22 -47 2 -73 -19 -25 -19 -66 1 -141
8 -33 17 -79 18 -103 2 -24 9 -48 16 -55 10 -10 11 2 6 63 -4 41 -11 92 -17
113 -15 56 4 103 64 159 l50 47 -6 60 c-4 36 -3 63 3 66 6 3 10 15 10 27 0 20
-1 20 -26 3 -76 -49 -128 71 -62 142 24 26 49 29 78 11 32 -20 37 2 7 28 -31
27 -107 34 -125 12z"/>
</g>
</svg>
